%TF.GenerationSoftware,KiCad,Pcbnew,9.0.4*%
%TF.CreationDate,2025-10-25T17:12:59+05:30*%
%TF.ProjectId,Buck,4275636b-2e6b-4696-9361-645f70636258,rev?*%
%TF.SameCoordinates,Original*%
%TF.FileFunction,Copper,L1,Top*%
%TF.FilePolarity,Positive*%
%FSLAX46Y46*%
G04 Gerber Fmt 4.6, Leading zero omitted, Abs format (unit mm)*
G04 Created by KiCad (PCBNEW 9.0.4) date 2025-10-25 17:12:59*
%MOMM*%
%LPD*%
G01*
G04 APERTURE LIST*
G04 Aperture macros list*
%AMRoundRect*
0 Rectangle with rounded corners*
0 $1 Rounding radius*
0 $2 $3 $4 $5 $6 $7 $8 $9 X,Y pos of 4 corners*
0 Add a 4 corners polygon primitive as box body*
4,1,4,$2,$3,$4,$5,$6,$7,$8,$9,$2,$3,0*
0 Add four circle primitives for the rounded corners*
1,1,$1+$1,$2,$3*
1,1,$1+$1,$4,$5*
1,1,$1+$1,$6,$7*
1,1,$1+$1,$8,$9*
0 Add four rect primitives between the rounded corners*
20,1,$1+$1,$2,$3,$4,$5,0*
20,1,$1+$1,$4,$5,$6,$7,0*
20,1,$1+$1,$6,$7,$8,$9,0*
20,1,$1+$1,$8,$9,$2,$3,0*%
G04 Aperture macros list end*
%TA.AperFunction,ComponentPad*%
%ADD10RoundRect,0.250000X-0.750000X-0.750000X0.750000X-0.750000X0.750000X0.750000X-0.750000X0.750000X0*%
%TD*%
%TA.AperFunction,ComponentPad*%
%ADD11C,2.000000*%
%TD*%
%TA.AperFunction,ComponentPad*%
%ADD12R,2.184400X2.184400*%
%TD*%
%TA.AperFunction,ComponentPad*%
%ADD13C,2.184400*%
%TD*%
%TA.AperFunction,ComponentPad*%
%ADD14RoundRect,0.249999X-0.850001X0.850001X-0.850001X-0.850001X0.850001X-0.850001X0.850001X0.850001X0*%
%TD*%
%TA.AperFunction,ComponentPad*%
%ADD15C,2.200000*%
%TD*%
%TA.AperFunction,ComponentPad*%
%ADD16R,1.800000X1.800000*%
%TD*%
%TA.AperFunction,ComponentPad*%
%ADD17C,1.800000*%
%TD*%
%TA.AperFunction,ComponentPad*%
%ADD18RoundRect,0.249999X-1.550001X0.790001X-1.550001X-0.790001X1.550001X-0.790001X1.550001X0.790001X0*%
%TD*%
%TA.AperFunction,ComponentPad*%
%ADD19O,3.600000X2.080000*%
%TD*%
%TA.AperFunction,ComponentPad*%
%ADD20RoundRect,0.249999X1.550001X-0.790001X1.550001X0.790001X-1.550001X0.790001X-1.550001X-0.790001X0*%
%TD*%
%TA.AperFunction,ComponentPad*%
%ADD21C,1.600000*%
%TD*%
%TA.AperFunction,ComponentPad*%
%ADD22C,2.400000*%
%TD*%
%TA.AperFunction,ComponentPad*%
%ADD23C,6.400000*%
%TD*%
%TA.AperFunction,ComponentPad*%
%ADD24RoundRect,0.500000X0.900000X-0.500000X0.900000X0.500000X-0.900000X0.500000X-0.900000X-0.500000X0*%
%TD*%
%TA.AperFunction,ComponentPad*%
%ADD25O,2.800000X2.000000*%
%TD*%
%TA.AperFunction,Conductor*%
%ADD26C,0.200000*%
%TD*%
G04 APERTURE END LIST*
D10*
%TO.P,C1,1*%
%TO.N,Net-(D1-A)*%
X166043600Y-97332800D03*
D11*
%TO.P,C1,2*%
%TO.N,GND*%
X171043600Y-97332800D03*
%TD*%
D10*
%TO.P,C3,1*%
%TO.N,Net-(D2-K)*%
X178835923Y-77114400D03*
D11*
%TO.P,C3,2*%
%TO.N,GND*%
X183835923Y-77114400D03*
%TD*%
D12*
%TO.P,CR1,1*%
%TO.N,Net-(U1-OUT)*%
X167932100Y-89662000D03*
D13*
%TO.P,CR1,2*%
%TO.N,GND*%
X188252100Y-89662000D03*
%TD*%
D14*
%TO.P,D1,1,K*%
%TO.N,GND*%
X160274000Y-86258400D03*
D15*
%TO.P,D1,2,A*%
%TO.N,Net-(D1-A)*%
X160274000Y-96418400D03*
%TD*%
D16*
%TO.P,D2,1,K*%
%TO.N,Net-(D2-K)*%
X182224600Y-66954400D03*
D17*
%TO.P,D2,2,A*%
%TO.N,GND*%
X179684600Y-66954400D03*
%TD*%
D18*
%TO.P,J1,1,Pin_1*%
%TO.N,Net-(J1-Pin_1)*%
X158343600Y-62230000D03*
D19*
%TO.P,J1,2,Pin_2*%
%TO.N,GND*%
X158343600Y-67310000D03*
%TD*%
D20*
%TO.P,J2,1,Pin_1*%
%TO.N,Net-(D2-K)*%
X194698100Y-87330200D03*
D19*
%TO.P,J2,2,Pin_2*%
%TO.N,GND*%
X194698100Y-82250200D03*
%TD*%
D21*
%TO.P,R1,1*%
%TO.N,GND*%
X195935600Y-75082400D03*
%TO.P,R1,2*%
%TO.N,Net-(U1-FB)*%
X195935600Y-67462400D03*
%TD*%
D16*
%TO.P,U1,1,VIN*%
%TO.N,Net-(D1-A)*%
X165512000Y-86046800D03*
D17*
%TO.P,U1,2,OUT*%
%TO.N,Net-(U1-OUT)*%
X167212000Y-82346800D03*
%TO.P,U1,3,GND*%
%TO.N,GND*%
X168912000Y-86046800D03*
%TO.P,U1,4,FB*%
%TO.N,Net-(U1-FB)*%
X170612000Y-82346800D03*
%TO.P,U1,5,~{ON}/OFF*%
%TO.N,GND*%
X172312000Y-86046800D03*
%TD*%
D22*
%TO.P,L1,1*%
%TO.N,Net-(U1-OUT)*%
X165308400Y-69240400D03*
%TO.P,L1,2*%
%TO.N,Net-(D2-K)*%
X172308400Y-69240400D03*
%TD*%
D23*
%TO.P,REF\u002A\u002A,1*%
%TO.N,N/C*%
X152501600Y-104902000D03*
%TD*%
%TO.P,REF\u002A\u002A,1*%
%TO.N,N/C*%
X201574400Y-54508400D03*
%TD*%
D21*
%TO.P,R3,1*%
%TO.N,Net-(D2-K)*%
X196088000Y-95300800D03*
%TO.P,R3,2*%
X188468000Y-95300800D03*
%TD*%
D23*
%TO.P,REF\u002A\u002A,1*%
%TO.N,N/C*%
X152501600Y-54152800D03*
%TD*%
%TO.P,REF\u002A\u002A,1*%
%TO.N,N/C*%
X201117200Y-104952800D03*
%TD*%
D21*
%TO.P,C2,1*%
%TO.N,Net-(U1-FB)*%
X201676000Y-70632000D03*
%TO.P,C2,2*%
%TO.N,Net-(D2-K)*%
X201676000Y-73132000D03*
%TD*%
D24*
%TO.P,F1,1*%
%TO.N,Net-(J1-Pin_1)*%
X152857200Y-99161600D03*
X152857200Y-91891600D03*
D25*
%TO.P,F1,2*%
%TO.N,Net-(D1-A)*%
X152857200Y-82811600D03*
X152857200Y-75541600D03*
%TD*%
D21*
%TO.P,R2,1*%
%TO.N,Net-(U1-FB)*%
X191008000Y-67462400D03*
%TO.P,R2,2*%
%TO.N,Net-(D2-K)*%
X191008000Y-75082400D03*
%TD*%
D26*
%TO.N,Net-(D1-A)*%
X152857200Y-82811600D02*
X152857200Y-75541600D01*
X162276800Y-82811600D02*
X152857200Y-82811600D01*
X165512000Y-86046800D02*
X162276800Y-82811600D01*
%TO.N,Net-(J1-Pin_1)*%
X151156200Y-69417400D02*
X158343600Y-62230000D01*
X151156200Y-90190600D02*
X151156200Y-69417400D01*
X152857200Y-91891600D02*
X151156200Y-90190600D01*
X152857200Y-99161600D02*
X152857200Y-91891600D01*
%TO.N,Net-(D2-K)*%
X192109000Y-73981400D02*
X191008000Y-75082400D01*
X199883650Y-73981400D02*
X192109000Y-73981400D01*
X202777000Y-70175950D02*
X202777000Y-71088050D01*
X182817600Y-66361400D02*
X198962450Y-66361400D01*
X182224600Y-66954400D02*
X182817600Y-66361400D01*
X198962450Y-66361400D02*
X202777000Y-70175950D01*
X202777000Y-71088050D02*
X199883650Y-73981400D01*
X194698100Y-87330200D02*
X197866000Y-84162300D01*
X197866000Y-76200000D02*
X192125600Y-76200000D01*
X197866000Y-84162300D02*
X197866000Y-76200000D01*
X198608000Y-76200000D02*
X197866000Y-76200000D01*
X196088000Y-88720100D02*
X194698100Y-87330200D01*
X196088000Y-95300800D02*
X196088000Y-88720100D01*
X188468000Y-93560300D02*
X194698100Y-87330200D01*
X188468000Y-95300800D02*
X188468000Y-93560300D01*
%TO.N,Net-(D1-A)*%
X161188400Y-97332800D02*
X160274000Y-96418400D01*
X166043600Y-97332800D02*
X161188400Y-97332800D01*
X165512000Y-96801200D02*
X166043600Y-97332800D01*
X165512000Y-86046800D02*
X165512000Y-96801200D01*
%TO.N,Net-(U1-FB)*%
X176123600Y-82346800D02*
X170612000Y-82346800D01*
X191008000Y-67462400D02*
X176123600Y-82346800D01*
X195935600Y-67462400D02*
X191008000Y-67462400D01*
%TO.N,Net-(D2-K)*%
X201676000Y-73132000D02*
X198608000Y-76200000D01*
X192125600Y-76200000D02*
X191008000Y-75082400D01*
%TO.N,Net-(U1-FB)*%
X199105200Y-70632000D02*
X195935600Y-67462400D01*
X201676000Y-70632000D02*
X199105200Y-70632000D01*
%TO.N,Net-(D2-K)*%
X179938600Y-69240400D02*
X182224600Y-66954400D01*
X172308400Y-69240400D02*
X179938600Y-69240400D01*
X178835923Y-75767923D02*
X172308400Y-69240400D01*
X178835923Y-77114400D02*
X178835923Y-75767923D01*
%TO.N,Net-(U1-OUT)*%
X167212000Y-71144000D02*
X165308400Y-69240400D01*
X167212000Y-82346800D02*
X167212000Y-71144000D01*
X167932100Y-89662000D02*
X167212000Y-88941900D01*
X167212000Y-88941900D02*
X167212000Y-82346800D01*
%TD*%
M02*
