M48
; DRILL file {KiCad 9.0.4} date 2025-10-25T17:15:42+0530
; FORMAT={-:-/ absolute / metric / decimal}
; #@! TF.CreationDate,2025-10-25T17:15:42+05:30
; #@! TF.GenerationSoftware,Kicad,Pcbnew,9.0.4
; #@! TF.FileFunction,Plated,1,2,PTH
FMAT,2
METRIC
; #@! TA.AperFunction,Plated,PTH,ComponentDrill
T1C0.800
; #@! TA.AperFunction,Plated,PTH,ComponentDrill
T2C0.900
; #@! TA.AperFunction,Plated,PTH,ComponentDrill
T3C1.000
; #@! TA.AperFunction,Plated,PTH,ComponentDrill
T4C1.020
; #@! TA.AperFunction,Plated,PTH,ComponentDrill
T5C1.100
; #@! TA.AperFunction,Plated,PTH,ComponentDrill
T6C1.200
; #@! TA.AperFunction,Plated,PTH,ComponentDrill
T7C1.400
; #@! TA.AperFunction,Plated,PTH,ComponentDrill
T8C1.676
; #@! TA.AperFunction,Plated,PTH,ComponentDrill
T9C3.200
%
G90
G05
T1
X188.468Y-95.301
X191.008Y-67.462
X191.008Y-75.082
X195.936Y-67.462
X195.936Y-75.082
X196.088Y-95.301
X201.676Y-70.632
X201.676Y-73.132
T2
X179.685Y-66.954
X182.225Y-66.954
T3
X166.044Y-97.333
X171.044Y-97.333
X178.836Y-77.114
X183.836Y-77.114
T5
X160.274Y-86.258
X160.274Y-96.418
X165.512Y-86.047
X167.212Y-82.347
X168.912Y-86.047
X170.612Y-82.347
X172.312Y-86.047
T6
X165.308Y-69.24
X172.308Y-69.24
T7
X158.344Y-62.23
X158.344Y-67.31
X194.698Y-82.25
X194.698Y-87.33
T8
X167.932Y-89.662
X188.252Y-89.662
T9
X152.502Y-54.153
X152.502Y-104.902
X201.117Y-104.953
X201.574Y-54.508
T4
G00X152.432Y-75.542
M15
G01X153.282Y-75.542
M16
G05
G00X152.432Y-82.812
M15
G01X153.282Y-82.812
M16
G05
G00X152.432Y-91.892
M15
G01X153.282Y-91.892
M16
G05
G00X152.432Y-99.162
M15
G01X153.282Y-99.162
M16
G05
M30
