%TF.GenerationSoftware,KiCad,Pcbnew,9.0.4*%
%TF.CreationDate,2025-10-25T17:12:59+05:30*%
%TF.ProjectId,Buck,4275636b-2e6b-4696-9361-645f70636258,rev?*%
%TF.SameCoordinates,Original*%
%TF.FileFunction,Copper,L2,Bot*%
%TF.FilePolarity,Positive*%
%FSLAX46Y46*%
G04 Gerber Fmt 4.6, Leading zero omitted, Abs format (unit mm)*
G04 Created by KiCad (PCBNEW 9.0.4) date 2025-10-25 17:12:59*
%MOMM*%
%LPD*%
G01*
G04 APERTURE LIST*
G04 Aperture macros list*
%AMRoundRect*
0 Rectangle with rounded corners*
0 $1 Rounding radius*
0 $2 $3 $4 $5 $6 $7 $8 $9 X,Y pos of 4 corners*
0 Add a 4 corners polygon primitive as box body*
4,1,4,$2,$3,$4,$5,$6,$7,$8,$9,$2,$3,0*
0 Add four circle primitives for the rounded corners*
1,1,$1+$1,$2,$3*
1,1,$1+$1,$4,$5*
1,1,$1+$1,$6,$7*
1,1,$1+$1,$8,$9*
0 Add four rect primitives between the rounded corners*
20,1,$1+$1,$2,$3,$4,$5,0*
20,1,$1+$1,$4,$5,$6,$7,0*
20,1,$1+$1,$6,$7,$8,$9,0*
20,1,$1+$1,$8,$9,$2,$3,0*%
G04 Aperture macros list end*
%TA.AperFunction,ComponentPad*%
%ADD10RoundRect,0.250000X-0.750000X-0.750000X0.750000X-0.750000X0.750000X0.750000X-0.750000X0.750000X0*%
%TD*%
%TA.AperFunction,ComponentPad*%
%ADD11C,2.000000*%
%TD*%
%TA.AperFunction,ComponentPad*%
%ADD12R,2.184400X2.184400*%
%TD*%
%TA.AperFunction,ComponentPad*%
%ADD13C,2.184400*%
%TD*%
%TA.AperFunction,ComponentPad*%
%ADD14RoundRect,0.249999X-0.850001X0.850001X-0.850001X-0.850001X0.850001X-0.850001X0.850001X0.850001X0*%
%TD*%
%TA.AperFunction,ComponentPad*%
%ADD15C,2.200000*%
%TD*%
%TA.AperFunction,ComponentPad*%
%ADD16R,1.800000X1.800000*%
%TD*%
%TA.AperFunction,ComponentPad*%
%ADD17C,1.800000*%
%TD*%
%TA.AperFunction,ComponentPad*%
%ADD18RoundRect,0.249999X-1.550001X0.790001X-1.550001X-0.790001X1.550001X-0.790001X1.550001X0.790001X0*%
%TD*%
%TA.AperFunction,ComponentPad*%
%ADD19O,3.600000X2.080000*%
%TD*%
%TA.AperFunction,ComponentPad*%
%ADD20RoundRect,0.249999X1.550001X-0.790001X1.550001X0.790001X-1.550001X0.790001X-1.550001X-0.790001X0*%
%TD*%
%TA.AperFunction,ComponentPad*%
%ADD21C,1.600000*%
%TD*%
%TA.AperFunction,ComponentPad*%
%ADD22C,2.400000*%
%TD*%
%TA.AperFunction,ComponentPad*%
%ADD23C,6.400000*%
%TD*%
%TA.AperFunction,ComponentPad*%
%ADD24RoundRect,0.500000X0.900000X-0.500000X0.900000X0.500000X-0.900000X0.500000X-0.900000X-0.500000X0*%
%TD*%
%TA.AperFunction,ComponentPad*%
%ADD25O,2.800000X2.000000*%
%TD*%
G04 APERTURE END LIST*
D10*
%TO.P,C1,1*%
%TO.N,Net-(D1-A)*%
X166043600Y-97332800D03*
D11*
%TO.P,C1,2*%
%TO.N,GND*%
X171043600Y-97332800D03*
%TD*%
D10*
%TO.P,C3,1*%
%TO.N,Net-(D2-K)*%
X178835923Y-77114400D03*
D11*
%TO.P,C3,2*%
%TO.N,GND*%
X183835923Y-77114400D03*
%TD*%
D12*
%TO.P,CR1,1*%
%TO.N,Net-(U1-OUT)*%
X167932100Y-89662000D03*
D13*
%TO.P,CR1,2*%
%TO.N,GND*%
X188252100Y-89662000D03*
%TD*%
D14*
%TO.P,D1,1,K*%
%TO.N,GND*%
X160274000Y-86258400D03*
D15*
%TO.P,D1,2,A*%
%TO.N,Net-(D1-A)*%
X160274000Y-96418400D03*
%TD*%
D16*
%TO.P,D2,1,K*%
%TO.N,Net-(D2-K)*%
X182224600Y-66954400D03*
D17*
%TO.P,D2,2,A*%
%TO.N,GND*%
X179684600Y-66954400D03*
%TD*%
D18*
%TO.P,J1,1,Pin_1*%
%TO.N,Net-(J1-Pin_1)*%
X158343600Y-62230000D03*
D19*
%TO.P,J1,2,Pin_2*%
%TO.N,GND*%
X158343600Y-67310000D03*
%TD*%
D20*
%TO.P,J2,1,Pin_1*%
%TO.N,Net-(D2-K)*%
X194698100Y-87330200D03*
D19*
%TO.P,J2,2,Pin_2*%
%TO.N,GND*%
X194698100Y-82250200D03*
%TD*%
D21*
%TO.P,R1,1*%
%TO.N,GND*%
X195935600Y-75082400D03*
%TO.P,R1,2*%
%TO.N,Net-(U1-FB)*%
X195935600Y-67462400D03*
%TD*%
D16*
%TO.P,U1,1,VIN*%
%TO.N,Net-(D1-A)*%
X165512000Y-86046800D03*
D17*
%TO.P,U1,2,OUT*%
%TO.N,Net-(U1-OUT)*%
X167212000Y-82346800D03*
%TO.P,U1,3,GND*%
%TO.N,GND*%
X168912000Y-86046800D03*
%TO.P,U1,4,FB*%
%TO.N,Net-(U1-FB)*%
X170612000Y-82346800D03*
%TO.P,U1,5,~{ON}/OFF*%
%TO.N,GND*%
X172312000Y-86046800D03*
%TD*%
D22*
%TO.P,L1,1*%
%TO.N,Net-(U1-OUT)*%
X165308400Y-69240400D03*
%TO.P,L1,2*%
%TO.N,Net-(D2-K)*%
X172308400Y-69240400D03*
%TD*%
D23*
%TO.P,REF\u002A\u002A,1*%
%TO.N,N/C*%
X152501600Y-104902000D03*
%TD*%
%TO.P,REF\u002A\u002A,1*%
%TO.N,N/C*%
X201574400Y-54508400D03*
%TD*%
D21*
%TO.P,R3,1*%
%TO.N,Net-(D2-K)*%
X196088000Y-95300800D03*
%TO.P,R3,2*%
X188468000Y-95300800D03*
%TD*%
D23*
%TO.P,REF\u002A\u002A,1*%
%TO.N,N/C*%
X152501600Y-54152800D03*
%TD*%
%TO.P,REF\u002A\u002A,1*%
%TO.N,N/C*%
X201117200Y-104952800D03*
%TD*%
D21*
%TO.P,C2,1*%
%TO.N,Net-(U1-FB)*%
X201676000Y-70632000D03*
%TO.P,C2,2*%
%TO.N,Net-(D2-K)*%
X201676000Y-73132000D03*
%TD*%
D24*
%TO.P,F1,1*%
%TO.N,Net-(J1-Pin_1)*%
X152857200Y-99161600D03*
X152857200Y-91891600D03*
D25*
%TO.P,F1,2*%
%TO.N,Net-(D1-A)*%
X152857200Y-82811600D03*
X152857200Y-75541600D03*
%TD*%
D21*
%TO.P,R2,1*%
%TO.N,Net-(U1-FB)*%
X191008000Y-67462400D03*
%TO.P,R2,2*%
%TO.N,Net-(D2-K)*%
X191008000Y-75082400D03*
%TD*%
%TA.AperFunction,Conductor*%
%TO.N,GND*%
G36*
X150890366Y-50608985D02*
G01*
X150936121Y-50661789D01*
X150946065Y-50730947D01*
X150917040Y-50794503D01*
X150881780Y-50822658D01*
X150596879Y-50974940D01*
X150596861Y-50974951D01*
X150294564Y-51176940D01*
X150294550Y-51176950D01*
X150013493Y-51407607D01*
X149756407Y-51664693D01*
X149525750Y-51945750D01*
X149525740Y-51945764D01*
X149323751Y-52248061D01*
X149323740Y-52248079D01*
X149152356Y-52568716D01*
X149152354Y-52568721D01*
X149013214Y-52904634D01*
X148907667Y-53252576D01*
X148907664Y-53252587D01*
X148836737Y-53609169D01*
X148826750Y-53710574D01*
X148801715Y-53964769D01*
X148801100Y-53971009D01*
X148801100Y-54334590D01*
X148836737Y-54696430D01*
X148907664Y-55053012D01*
X148907667Y-55053023D01*
X149013214Y-55400965D01*
X149152354Y-55736878D01*
X149152356Y-55736883D01*
X149323740Y-56057520D01*
X149323751Y-56057538D01*
X149525740Y-56359835D01*
X149525750Y-56359849D01*
X149756407Y-56640906D01*
X150013493Y-56897992D01*
X150013498Y-56897996D01*
X150013499Y-56897997D01*
X150294556Y-57128654D01*
X150596868Y-57330653D01*
X150596877Y-57330658D01*
X150596879Y-57330659D01*
X150917516Y-57502043D01*
X150917518Y-57502043D01*
X150917524Y-57502047D01*
X151253436Y-57641186D01*
X151601367Y-57746730D01*
X151601373Y-57746731D01*
X151601376Y-57746732D01*
X151601387Y-57746735D01*
X151957969Y-57817662D01*
X152319806Y-57853300D01*
X152319809Y-57853300D01*
X152683391Y-57853300D01*
X152683394Y-57853300D01*
X153045231Y-57817662D01*
X153114645Y-57803854D01*
X153401812Y-57746735D01*
X153401823Y-57746732D01*
X153401823Y-57746731D01*
X153401833Y-57746730D01*
X153749764Y-57641186D01*
X154085676Y-57502047D01*
X154406332Y-57330653D01*
X154708644Y-57128654D01*
X154989701Y-56897997D01*
X155246797Y-56640901D01*
X155477454Y-56359844D01*
X155679453Y-56057532D01*
X155850847Y-55736876D01*
X155989986Y-55400964D01*
X156095530Y-55053033D01*
X156095532Y-55053023D01*
X156095535Y-55053012D01*
X156166462Y-54696430D01*
X156202100Y-54334590D01*
X156202100Y-53971009D01*
X156201485Y-53964769D01*
X156166462Y-53609169D01*
X156166263Y-53608167D01*
X156095535Y-53252587D01*
X156095532Y-53252576D01*
X156095531Y-53252573D01*
X156095530Y-53252567D01*
X155989986Y-52904636D01*
X155850847Y-52568724D01*
X155679453Y-52248068D01*
X155477454Y-51945756D01*
X155246797Y-51664699D01*
X155246796Y-51664698D01*
X155246792Y-51664693D01*
X154989706Y-51407607D01*
X154708649Y-51176950D01*
X154708648Y-51176949D01*
X154708644Y-51176946D01*
X154406332Y-50974947D01*
X154406327Y-50974944D01*
X154406320Y-50974940D01*
X154121420Y-50822658D01*
X154071575Y-50773696D01*
X154056115Y-50705558D01*
X154079947Y-50639878D01*
X154135504Y-50597510D01*
X154179873Y-50589300D01*
X201088010Y-50589300D01*
X201155049Y-50608985D01*
X201200804Y-50661789D01*
X201210748Y-50730947D01*
X201181723Y-50794503D01*
X201122945Y-50832277D01*
X201100164Y-50836703D01*
X201030769Y-50843537D01*
X200674187Y-50914464D01*
X200674176Y-50914467D01*
X200326234Y-51020014D01*
X199990321Y-51159154D01*
X199990316Y-51159156D01*
X199669679Y-51330540D01*
X199669661Y-51330551D01*
X199367364Y-51532540D01*
X199367350Y-51532550D01*
X199086293Y-51763207D01*
X198829207Y-52020293D01*
X198598550Y-52301350D01*
X198598540Y-52301364D01*
X198396551Y-52603661D01*
X198396540Y-52603679D01*
X198225156Y-52924316D01*
X198225154Y-52924321D01*
X198086014Y-53260234D01*
X197980467Y-53608176D01*
X197980464Y-53608187D01*
X197909537Y-53964769D01*
X197882028Y-54244079D01*
X197873900Y-54326606D01*
X197873900Y-54690194D01*
X197884737Y-54800229D01*
X197909537Y-55052030D01*
X197980464Y-55408612D01*
X197980467Y-55408623D01*
X198086014Y-55756565D01*
X198225154Y-56092478D01*
X198225156Y-56092483D01*
X198396540Y-56413120D01*
X198396551Y-56413138D01*
X198598540Y-56715435D01*
X198598550Y-56715449D01*
X198829207Y-56996506D01*
X199086293Y-57253592D01*
X199086298Y-57253596D01*
X199086299Y-57253597D01*
X199367356Y-57484254D01*
X199669668Y-57686253D01*
X199669677Y-57686258D01*
X199669679Y-57686259D01*
X199990316Y-57857643D01*
X199990318Y-57857643D01*
X199990324Y-57857647D01*
X200326236Y-57996786D01*
X200674167Y-58102330D01*
X200674173Y-58102331D01*
X200674176Y-58102332D01*
X200674187Y-58102335D01*
X201030769Y-58173262D01*
X201392606Y-58208900D01*
X201392609Y-58208900D01*
X201756191Y-58208900D01*
X201756194Y-58208900D01*
X202118031Y-58173262D01*
X202187445Y-58159454D01*
X202474612Y-58102335D01*
X202474623Y-58102332D01*
X202474623Y-58102331D01*
X202474633Y-58102330D01*
X202822564Y-57996786D01*
X203158476Y-57857647D01*
X203479132Y-57686253D01*
X203781444Y-57484254D01*
X204062501Y-57253597D01*
X204319597Y-56996501D01*
X204550254Y-56715444D01*
X204752253Y-56413132D01*
X204923647Y-56092476D01*
X204950139Y-56028517D01*
X204993979Y-55974114D01*
X205060273Y-55952049D01*
X205127973Y-55969328D01*
X205175584Y-56020465D01*
X205188700Y-56075970D01*
X205188700Y-108595500D01*
X205169015Y-108662539D01*
X205116211Y-108708294D01*
X205064700Y-108719500D01*
X202283826Y-108719500D01*
X202216787Y-108699815D01*
X202171032Y-108647011D01*
X202161088Y-108577853D01*
X202190113Y-108514297D01*
X202247830Y-108476839D01*
X202365364Y-108441186D01*
X202701276Y-108302047D01*
X203021932Y-108130653D01*
X203324244Y-107928654D01*
X203605301Y-107697997D01*
X203862397Y-107440901D01*
X204093054Y-107159844D01*
X204295053Y-106857532D01*
X204466447Y-106536876D01*
X204605586Y-106200964D01*
X204711130Y-105853033D01*
X204711132Y-105853023D01*
X204711135Y-105853012D01*
X204782062Y-105496430D01*
X204817700Y-105134590D01*
X204817700Y-104771009D01*
X204812696Y-104720206D01*
X204782062Y-104409169D01*
X204771957Y-104358369D01*
X204711135Y-104052587D01*
X204711132Y-104052576D01*
X204711131Y-104052573D01*
X204711130Y-104052567D01*
X204605586Y-103704636D01*
X204466447Y-103368724D01*
X204439292Y-103317921D01*
X204295059Y-103048079D01*
X204295058Y-103048077D01*
X204295053Y-103048068D01*
X204093054Y-102745756D01*
X203862397Y-102464699D01*
X203862396Y-102464698D01*
X203862392Y-102464693D01*
X203605306Y-102207607D01*
X203324249Y-101976950D01*
X203324248Y-101976949D01*
X203324244Y-101976946D01*
X203021932Y-101774947D01*
X203021927Y-101774944D01*
X203021920Y-101774940D01*
X202701283Y-101603556D01*
X202701278Y-101603554D01*
X202365365Y-101464414D01*
X202017423Y-101358867D01*
X202017412Y-101358864D01*
X201660830Y-101287937D01*
X201388311Y-101261096D01*
X201298994Y-101252300D01*
X200935406Y-101252300D01*
X200852879Y-101260428D01*
X200573569Y-101287937D01*
X200216987Y-101358864D01*
X200216976Y-101358867D01*
X199869034Y-101464414D01*
X199533121Y-101603554D01*
X199533116Y-101603556D01*
X199212479Y-101774940D01*
X199212461Y-101774951D01*
X198910164Y-101976940D01*
X198910150Y-101976950D01*
X198629093Y-102207607D01*
X198372007Y-102464693D01*
X198141350Y-102745750D01*
X198141340Y-102745764D01*
X197939351Y-103048061D01*
X197939340Y-103048079D01*
X197767956Y-103368716D01*
X197767954Y-103368721D01*
X197628814Y-103704634D01*
X197523267Y-104052576D01*
X197523264Y-104052587D01*
X197452337Y-104409169D01*
X197424828Y-104688479D01*
X197421704Y-104720206D01*
X197416700Y-104771009D01*
X197416700Y-105134590D01*
X197452337Y-105496430D01*
X197523264Y-105853012D01*
X197523267Y-105853023D01*
X197628814Y-106200965D01*
X197767954Y-106536878D01*
X197767956Y-106536883D01*
X197939340Y-106857520D01*
X197939351Y-106857538D01*
X198141340Y-107159835D01*
X198141350Y-107159849D01*
X198372007Y-107440906D01*
X198629093Y-107697992D01*
X198629098Y-107697996D01*
X198629099Y-107697997D01*
X198910156Y-107928654D01*
X199212468Y-108130653D01*
X199212477Y-108130658D01*
X199212479Y-108130659D01*
X199533116Y-108302043D01*
X199533118Y-108302043D01*
X199533124Y-108302047D01*
X199869036Y-108441186D01*
X199986569Y-108476839D01*
X200045008Y-108515137D01*
X200073464Y-108578949D01*
X200062904Y-108648016D01*
X200016680Y-108700410D01*
X199950574Y-108719500D01*
X153500760Y-108719500D01*
X153433721Y-108699815D01*
X153387966Y-108647011D01*
X153378022Y-108577853D01*
X153407047Y-108514297D01*
X153464762Y-108476840D01*
X153749764Y-108390386D01*
X154085676Y-108251247D01*
X154406332Y-108079853D01*
X154708644Y-107877854D01*
X154989701Y-107647197D01*
X155246797Y-107390101D01*
X155477454Y-107109044D01*
X155679453Y-106806732D01*
X155850847Y-106486076D01*
X155989986Y-106150164D01*
X156095530Y-105802233D01*
X156095532Y-105802223D01*
X156095535Y-105802212D01*
X156156357Y-105496431D01*
X156166462Y-105445631D01*
X156202100Y-105083794D01*
X156202100Y-104720206D01*
X156166462Y-104358369D01*
X156095535Y-104001787D01*
X156095532Y-104001776D01*
X156095531Y-104001773D01*
X156095530Y-104001767D01*
X155989986Y-103653836D01*
X155850847Y-103317924D01*
X155706602Y-103048061D01*
X155679459Y-102997279D01*
X155679458Y-102997277D01*
X155679453Y-102997268D01*
X155477454Y-102694956D01*
X155246797Y-102413899D01*
X155246796Y-102413898D01*
X155246792Y-102413893D01*
X154989706Y-102156807D01*
X154708649Y-101926150D01*
X154708648Y-101926149D01*
X154708644Y-101926146D01*
X154406332Y-101724147D01*
X154406327Y-101724144D01*
X154406320Y-101724140D01*
X154085683Y-101552756D01*
X154085678Y-101552754D01*
X153749765Y-101413614D01*
X153401823Y-101308067D01*
X153401812Y-101308064D01*
X153045230Y-101237137D01*
X152772711Y-101210296D01*
X152683394Y-101201500D01*
X152319806Y-101201500D01*
X152237279Y-101209628D01*
X151957969Y-101237137D01*
X151601387Y-101308064D01*
X151601376Y-101308067D01*
X151253434Y-101413614D01*
X150917521Y-101552754D01*
X150917516Y-101552756D01*
X150596879Y-101724140D01*
X150596861Y-101724151D01*
X150294564Y-101926140D01*
X150294550Y-101926150D01*
X150013493Y-102156807D01*
X149756407Y-102413893D01*
X149525750Y-102694950D01*
X149525740Y-102694964D01*
X149323751Y-102997261D01*
X149323740Y-102997279D01*
X149152356Y-103317916D01*
X149152354Y-103317921D01*
X149013214Y-103653834D01*
X148907667Y-104001776D01*
X148907664Y-104001787D01*
X148836737Y-104358369D01*
X148809228Y-104637679D01*
X148801100Y-104720206D01*
X148801100Y-105083794D01*
X148811937Y-105193829D01*
X148836737Y-105445630D01*
X148907664Y-105802212D01*
X148907667Y-105802223D01*
X149013214Y-106150165D01*
X149152354Y-106486078D01*
X149152356Y-106486083D01*
X149323740Y-106806720D01*
X149323751Y-106806738D01*
X149525740Y-107109035D01*
X149525750Y-107109049D01*
X149756407Y-107390106D01*
X150013493Y-107647192D01*
X150013498Y-107647196D01*
X150013499Y-107647197D01*
X150294556Y-107877854D01*
X150596868Y-108079853D01*
X150596877Y-108079858D01*
X150596879Y-108079859D01*
X150917516Y-108251243D01*
X150917518Y-108251243D01*
X150917524Y-108251247D01*
X151253436Y-108390386D01*
X151538437Y-108476840D01*
X151596874Y-108515137D01*
X151625330Y-108578949D01*
X151614770Y-108648016D01*
X151568546Y-108700410D01*
X151502440Y-108719500D01*
X147995300Y-108719500D01*
X147928261Y-108699815D01*
X147882506Y-108647011D01*
X147871300Y-108595500D01*
X147871300Y-98603566D01*
X150956700Y-98603566D01*
X150956700Y-99719628D01*
X150956701Y-99719634D01*
X150967313Y-99839015D01*
X151023289Y-100034645D01*
X151023290Y-100034648D01*
X151023291Y-100034649D01*
X151117502Y-100215007D01*
X151117504Y-100215009D01*
X151246090Y-100372709D01*
X151340003Y-100449284D01*
X151403793Y-100501298D01*
X151584151Y-100595509D01*
X151779782Y-100651486D01*
X151899163Y-100662100D01*
X153815236Y-100662099D01*
X153934618Y-100651486D01*
X154130249Y-100595509D01*
X154310607Y-100501298D01*
X154468309Y-100372709D01*
X154596898Y-100215007D01*
X154691109Y-100034649D01*
X154747086Y-99839018D01*
X154757700Y-99719637D01*
X154757699Y-98603564D01*
X154747086Y-98484182D01*
X154691109Y-98288551D01*
X154596898Y-98108193D01*
X154491954Y-97979489D01*
X154468309Y-97950490D01*
X154310609Y-97821904D01*
X154310610Y-97821904D01*
X154310607Y-97821902D01*
X154130249Y-97727691D01*
X154130248Y-97727690D01*
X154130245Y-97727689D01*
X154013029Y-97694150D01*
X153934618Y-97671714D01*
X153934615Y-97671713D01*
X153934613Y-97671713D01*
X153868302Y-97665817D01*
X153815237Y-97661100D01*
X153815232Y-97661100D01*
X151899171Y-97661100D01*
X151899165Y-97661100D01*
X151899164Y-97661101D01*
X151887516Y-97662136D01*
X151779784Y-97671713D01*
X151584154Y-97727689D01*
X151493972Y-97774796D01*
X151403793Y-97821902D01*
X151403791Y-97821903D01*
X151403790Y-97821904D01*
X151246090Y-97950490D01*
X151117504Y-98108190D01*
X151117502Y-98108193D01*
X151104644Y-98132809D01*
X151023289Y-98288554D01*
X150967314Y-98484183D01*
X150967313Y-98484186D01*
X150956700Y-98603566D01*
X147871300Y-98603566D01*
X147871300Y-96292438D01*
X158673500Y-96292438D01*
X158673500Y-96544361D01*
X158712910Y-96793185D01*
X158790760Y-97032783D01*
X158905132Y-97257248D01*
X159053201Y-97461049D01*
X159053205Y-97461054D01*
X159231345Y-97639194D01*
X159231350Y-97639198D01*
X159409117Y-97768352D01*
X159435155Y-97787270D01*
X159524513Y-97832800D01*
X159659616Y-97901639D01*
X159659618Y-97901639D01*
X159659621Y-97901641D01*
X159899215Y-97979490D01*
X160148038Y-98018900D01*
X160148039Y-98018900D01*
X160399961Y-98018900D01*
X160399962Y-98018900D01*
X160648785Y-97979490D01*
X160888379Y-97901641D01*
X161112845Y-97787270D01*
X161316656Y-97639193D01*
X161494793Y-97461056D01*
X161642870Y-97257245D01*
X161757241Y-97032779D01*
X161835090Y-96793185D01*
X161874500Y-96544362D01*
X161874500Y-96532783D01*
X164543100Y-96532783D01*
X164543100Y-98132801D01*
X164543101Y-98132818D01*
X164553600Y-98235596D01*
X164553601Y-98235599D01*
X164571148Y-98288551D01*
X164608786Y-98402134D01*
X164700888Y-98551456D01*
X164824944Y-98675512D01*
X164974266Y-98767614D01*
X165140803Y-98822799D01*
X165243591Y-98833300D01*
X166843608Y-98833299D01*
X166946397Y-98822799D01*
X167112934Y-98767614D01*
X167262256Y-98675512D01*
X167386312Y-98551456D01*
X167478414Y-98402134D01*
X167533599Y-98235597D01*
X167544100Y-98132809D01*
X167544099Y-97214747D01*
X169543600Y-97214747D01*
X169543600Y-97450852D01*
X169580534Y-97684047D01*
X169653497Y-97908602D01*
X169760687Y-98118974D01*
X169820938Y-98201904D01*
X169820940Y-98201905D01*
X170560637Y-97462208D01*
X170577675Y-97525793D01*
X170643501Y-97639807D01*
X170736593Y-97732899D01*
X170850607Y-97798725D01*
X170914190Y-97815762D01*
X170174493Y-98555458D01*
X170257428Y-98615714D01*
X170467797Y-98722902D01*
X170692352Y-98795865D01*
X170692351Y-98795865D01*
X170925548Y-98832800D01*
X171161652Y-98832800D01*
X171394847Y-98795865D01*
X171619402Y-98722902D01*
X171829763Y-98615718D01*
X171829769Y-98615714D01*
X171912704Y-98555458D01*
X171912705Y-98555458D01*
X171173008Y-97815762D01*
X171236593Y-97798725D01*
X171350607Y-97732899D01*
X171443699Y-97639807D01*
X171509525Y-97525793D01*
X171526562Y-97462209D01*
X172266258Y-98201905D01*
X172266258Y-98201904D01*
X172326514Y-98118969D01*
X172326518Y-98118963D01*
X172433702Y-97908602D01*
X172506665Y-97684047D01*
X172543600Y-97450852D01*
X172543600Y-97214747D01*
X172506665Y-96981552D01*
X172433702Y-96756997D01*
X172326514Y-96546628D01*
X172266258Y-96463694D01*
X172266258Y-96463693D01*
X171526562Y-97203390D01*
X171509525Y-97139807D01*
X171443699Y-97025793D01*
X171350607Y-96932701D01*
X171236593Y-96866875D01*
X171173009Y-96849837D01*
X171912705Y-96110140D01*
X171912704Y-96110138D01*
X171829774Y-96049887D01*
X171619402Y-95942697D01*
X171394847Y-95869734D01*
X171394848Y-95869734D01*
X171161652Y-95832800D01*
X170925548Y-95832800D01*
X170692352Y-95869734D01*
X170467797Y-95942697D01*
X170257430Y-96049884D01*
X170174494Y-96110140D01*
X170914191Y-96849837D01*
X170850607Y-96866875D01*
X170736593Y-96932701D01*
X170643501Y-97025793D01*
X170577675Y-97139807D01*
X170560637Y-97203390D01*
X169820940Y-96463694D01*
X169760684Y-96546630D01*
X169653497Y-96756997D01*
X169580534Y-96981552D01*
X169543600Y-97214747D01*
X167544099Y-97214747D01*
X167544099Y-96532792D01*
X167537040Y-96463693D01*
X167533599Y-96430003D01*
X167533598Y-96430000D01*
X167527993Y-96413084D01*
X167478414Y-96263466D01*
X167386312Y-96114144D01*
X167262256Y-95990088D01*
X167112934Y-95897986D01*
X166946397Y-95842801D01*
X166946395Y-95842800D01*
X166843610Y-95832300D01*
X165243598Y-95832300D01*
X165243581Y-95832301D01*
X165140803Y-95842800D01*
X165140800Y-95842801D01*
X164974268Y-95897985D01*
X164974263Y-95897987D01*
X164824942Y-95990089D01*
X164700889Y-96114142D01*
X164608787Y-96263463D01*
X164608785Y-96263468D01*
X164599077Y-96292766D01*
X164553601Y-96430003D01*
X164553601Y-96430004D01*
X164553600Y-96430004D01*
X164543100Y-96532783D01*
X161874500Y-96532783D01*
X161874500Y-96292438D01*
X161835090Y-96043615D01*
X161757241Y-95804021D01*
X161757239Y-95804018D01*
X161757239Y-95804016D01*
X161715747Y-95722584D01*
X161642870Y-95579555D01*
X161623952Y-95553517D01*
X161494798Y-95375750D01*
X161494794Y-95375745D01*
X161317497Y-95198448D01*
X187167500Y-95198448D01*
X187167500Y-95403151D01*
X187199522Y-95605334D01*
X187262781Y-95800023D01*
X187355715Y-95982413D01*
X187476028Y-96148013D01*
X187620786Y-96292771D01*
X187775749Y-96405356D01*
X187786390Y-96413087D01*
X187885710Y-96463693D01*
X187968776Y-96506018D01*
X187968778Y-96506018D01*
X187968781Y-96506020D01*
X188051143Y-96532781D01*
X188163465Y-96569277D01*
X188264557Y-96585288D01*
X188365648Y-96601300D01*
X188365649Y-96601300D01*
X188570351Y-96601300D01*
X188570352Y-96601300D01*
X188772534Y-96569277D01*
X188967219Y-96506020D01*
X189149610Y-96413087D01*
X189242590Y-96345532D01*
X189315213Y-96292771D01*
X189315215Y-96292768D01*
X189315219Y-96292766D01*
X189459966Y-96148019D01*
X189459968Y-96148015D01*
X189459971Y-96148013D01*
X189531262Y-96049887D01*
X189580287Y-95982410D01*
X189673220Y-95800019D01*
X189736477Y-95605334D01*
X189768500Y-95403152D01*
X189768500Y-95198448D01*
X194787500Y-95198448D01*
X194787500Y-95403151D01*
X194819522Y-95605334D01*
X194882781Y-95800023D01*
X194975715Y-95982413D01*
X195096028Y-96148013D01*
X195240786Y-96292771D01*
X195395749Y-96405356D01*
X195406390Y-96413087D01*
X195505710Y-96463693D01*
X195588776Y-96506018D01*
X195588778Y-96506018D01*
X195588781Y-96506020D01*
X195671143Y-96532781D01*
X195783465Y-96569277D01*
X195884557Y-96585288D01*
X195985648Y-96601300D01*
X195985649Y-96601300D01*
X196190351Y-96601300D01*
X196190352Y-96601300D01*
X196392534Y-96569277D01*
X196587219Y-96506020D01*
X196769610Y-96413087D01*
X196862590Y-96345532D01*
X196935213Y-96292771D01*
X196935215Y-96292768D01*
X196935219Y-96292766D01*
X197079966Y-96148019D01*
X197079968Y-96148015D01*
X197079971Y-96148013D01*
X197151262Y-96049887D01*
X197200287Y-95982410D01*
X197293220Y-95800019D01*
X197356477Y-95605334D01*
X197388500Y-95403152D01*
X197388500Y-95198448D01*
X197356477Y-94996266D01*
X197336622Y-94935160D01*
X197293218Y-94801576D01*
X197259503Y-94735407D01*
X197200287Y-94619190D01*
X197192556Y-94608549D01*
X197079971Y-94453586D01*
X196935213Y-94308828D01*
X196769613Y-94188515D01*
X196769612Y-94188514D01*
X196769610Y-94188513D01*
X196712653Y-94159491D01*
X196587223Y-94095581D01*
X196392534Y-94032322D01*
X196217995Y-94004678D01*
X196190352Y-94000300D01*
X195985648Y-94000300D01*
X195961329Y-94004151D01*
X195783465Y-94032322D01*
X195588776Y-94095581D01*
X195406386Y-94188515D01*
X195240786Y-94308828D01*
X195096028Y-94453586D01*
X194975715Y-94619186D01*
X194882781Y-94801576D01*
X194819522Y-94996265D01*
X194787500Y-95198448D01*
X189768500Y-95198448D01*
X189736477Y-94996266D01*
X189716622Y-94935160D01*
X189673218Y-94801576D01*
X189639503Y-94735407D01*
X189580287Y-94619190D01*
X189572556Y-94608549D01*
X189459971Y-94453586D01*
X189315213Y-94308828D01*
X189149613Y-94188515D01*
X189149612Y-94188514D01*
X189149610Y-94188513D01*
X189092653Y-94159491D01*
X188967223Y-94095581D01*
X188772534Y-94032322D01*
X188597995Y-94004678D01*
X188570352Y-94000300D01*
X188365648Y-94000300D01*
X188341329Y-94004151D01*
X188163465Y-94032322D01*
X187968776Y-94095581D01*
X187786386Y-94188515D01*
X187620786Y-94308828D01*
X187476028Y-94453586D01*
X187355715Y-94619186D01*
X187262781Y-94801576D01*
X187199522Y-94996265D01*
X187167500Y-95198448D01*
X161317497Y-95198448D01*
X161316654Y-95197605D01*
X161316649Y-95197601D01*
X161112848Y-95049532D01*
X161112847Y-95049531D01*
X161112845Y-95049530D01*
X161042747Y-95013813D01*
X160888383Y-94935160D01*
X160648785Y-94857310D01*
X160399962Y-94817900D01*
X160148038Y-94817900D01*
X160023626Y-94837605D01*
X159899214Y-94857310D01*
X159659616Y-94935160D01*
X159435151Y-95049532D01*
X159231350Y-95197601D01*
X159231345Y-95197605D01*
X159053205Y-95375745D01*
X159053201Y-95375750D01*
X158905132Y-95579551D01*
X158790760Y-95804016D01*
X158712910Y-96043614D01*
X158673500Y-96292438D01*
X147871300Y-96292438D01*
X147871300Y-91333566D01*
X150956700Y-91333566D01*
X150956700Y-92449628D01*
X150956701Y-92449634D01*
X150967313Y-92569015D01*
X151023289Y-92764645D01*
X151023290Y-92764648D01*
X151023291Y-92764649D01*
X151117502Y-92945007D01*
X151117504Y-92945009D01*
X151246090Y-93102709D01*
X151340003Y-93179284D01*
X151403793Y-93231298D01*
X151584151Y-93325509D01*
X151779782Y-93381486D01*
X151899163Y-93392100D01*
X153815236Y-93392099D01*
X153934618Y-93381486D01*
X154130249Y-93325509D01*
X154310607Y-93231298D01*
X154468309Y-93102709D01*
X154596898Y-92945007D01*
X154691109Y-92764649D01*
X154747086Y-92569018D01*
X154757700Y-92449637D01*
X154757699Y-91333564D01*
X154747086Y-91214182D01*
X154702212Y-91057356D01*
X154691110Y-91018554D01*
X154691109Y-91018553D01*
X154691109Y-91018551D01*
X154596898Y-90838193D01*
X154544884Y-90774403D01*
X154468309Y-90680490D01*
X154310609Y-90551904D01*
X154310610Y-90551904D01*
X154310607Y-90551902D01*
X154130249Y-90457691D01*
X154130248Y-90457690D01*
X154130245Y-90457689D01*
X154013029Y-90424150D01*
X153934618Y-90401714D01*
X153934615Y-90401713D01*
X153934613Y-90401713D01*
X153868302Y-90395817D01*
X153815237Y-90391100D01*
X153815232Y-90391100D01*
X151899171Y-90391100D01*
X151899165Y-90391100D01*
X151899164Y-90391101D01*
X151887516Y-90392136D01*
X151779784Y-90401713D01*
X151584154Y-90457689D01*
X151493972Y-90504796D01*
X151403793Y-90551902D01*
X151403791Y-90551903D01*
X151403790Y-90551904D01*
X151246090Y-90680490D01*
X151117504Y-90838190D01*
X151117502Y-90838193D01*
X151070396Y-90928372D01*
X151023289Y-91018554D01*
X150996624Y-91111747D01*
X150971946Y-91197996D01*
X150967314Y-91214183D01*
X150967313Y-91214186D01*
X150956700Y-91333566D01*
X147871300Y-91333566D01*
X147871300Y-88521935D01*
X166339400Y-88521935D01*
X166339400Y-90802070D01*
X166339401Y-90802076D01*
X166345808Y-90861683D01*
X166396102Y-90996528D01*
X166396106Y-90996535D01*
X166482352Y-91111744D01*
X166482355Y-91111747D01*
X166597564Y-91197993D01*
X166597571Y-91197997D01*
X166732417Y-91248291D01*
X166732416Y-91248291D01*
X166739344Y-91249035D01*
X166792027Y-91254700D01*
X169072172Y-91254699D01*
X169131783Y-91248291D01*
X169266631Y-91197996D01*
X169381846Y-91111746D01*
X169468096Y-90996531D01*
X169518391Y-90861683D01*
X169524800Y-90802073D01*
X169524799Y-89536691D01*
X186659900Y-89536691D01*
X186659900Y-89787308D01*
X186699106Y-90034842D01*
X186699106Y-90034845D01*
X186776549Y-90273190D01*
X186890329Y-90496494D01*
X186963433Y-90597112D01*
X186963433Y-90597113D01*
X187507016Y-90053530D01*
X187509297Y-90059037D01*
X187601027Y-90196322D01*
X187717778Y-90313073D01*
X187855063Y-90404803D01*
X187860568Y-90407083D01*
X187316985Y-90950665D01*
X187417605Y-91023770D01*
X187640909Y-91137550D01*
X187879256Y-91214993D01*
X188126792Y-91254200D01*
X188377408Y-91254200D01*
X188624942Y-91214993D01*
X188624945Y-91214993D01*
X188863290Y-91137550D01*
X189086586Y-91023774D01*
X189086592Y-91023770D01*
X189187212Y-90950665D01*
X189187213Y-90950665D01*
X188643631Y-90407083D01*
X188649137Y-90404803D01*
X188786422Y-90313073D01*
X188903173Y-90196322D01*
X188994903Y-90059037D01*
X188997183Y-90053531D01*
X189540765Y-90597113D01*
X189540765Y-90597112D01*
X189613870Y-90496492D01*
X189613874Y-90496486D01*
X189727650Y-90273190D01*
X189805093Y-90034845D01*
X189805093Y-90034842D01*
X189844300Y-89787308D01*
X189844300Y-89536691D01*
X189805093Y-89289157D01*
X189805093Y-89289154D01*
X189727650Y-89050809D01*
X189613870Y-88827505D01*
X189540765Y-88726886D01*
X189540765Y-88726885D01*
X188997183Y-89270467D01*
X188994903Y-89264963D01*
X188903173Y-89127678D01*
X188786422Y-89010927D01*
X188649137Y-88919197D01*
X188643629Y-88916915D01*
X189187213Y-88373333D01*
X189086594Y-88300229D01*
X188863290Y-88186449D01*
X188624943Y-88109006D01*
X188377408Y-88069800D01*
X188126792Y-88069800D01*
X187879257Y-88109006D01*
X187879254Y-88109006D01*
X187640909Y-88186449D01*
X187417602Y-88300231D01*
X187316986Y-88373332D01*
X187316985Y-88373333D01*
X187860568Y-88916916D01*
X187855063Y-88919197D01*
X187717778Y-89010927D01*
X187601027Y-89127678D01*
X187509297Y-89264963D01*
X187507016Y-89270468D01*
X186963433Y-88726885D01*
X186963432Y-88726886D01*
X186890331Y-88827502D01*
X186776549Y-89050809D01*
X186699106Y-89289154D01*
X186699106Y-89289157D01*
X186659900Y-89536691D01*
X169524799Y-89536691D01*
X169524799Y-88521928D01*
X169518391Y-88462317D01*
X169468096Y-88327469D01*
X169468095Y-88327468D01*
X169468093Y-88327464D01*
X169381847Y-88212255D01*
X169381844Y-88212252D01*
X169266635Y-88126006D01*
X169266628Y-88126002D01*
X169131782Y-88075708D01*
X169131783Y-88075708D01*
X169072183Y-88069301D01*
X169072181Y-88069300D01*
X169072173Y-88069300D01*
X169072164Y-88069300D01*
X166792029Y-88069300D01*
X166792023Y-88069301D01*
X166732416Y-88075708D01*
X166597571Y-88126002D01*
X166597564Y-88126006D01*
X166482355Y-88212252D01*
X166482352Y-88212255D01*
X166396106Y-88327464D01*
X166396102Y-88327471D01*
X166345808Y-88462317D01*
X166339401Y-88521916D01*
X166339401Y-88521923D01*
X166339400Y-88521935D01*
X147871300Y-88521935D01*
X147871300Y-85358413D01*
X158674000Y-85358413D01*
X158674000Y-86008400D01*
X159783252Y-86008400D01*
X159761482Y-86046108D01*
X159724000Y-86185991D01*
X159724000Y-86330809D01*
X159761482Y-86470692D01*
X159783252Y-86508400D01*
X158674001Y-86508400D01*
X158674001Y-87158386D01*
X158684494Y-87261096D01*
X158684494Y-87261098D01*
X158739640Y-87427519D01*
X158739645Y-87427530D01*
X158831680Y-87576740D01*
X158831683Y-87576744D01*
X158955655Y-87700716D01*
X158955659Y-87700719D01*
X159104869Y-87792754D01*
X159104880Y-87792759D01*
X159271302Y-87847905D01*
X159374019Y-87858399D01*
X160023999Y-87858399D01*
X160024000Y-87858398D01*
X160024000Y-86749147D01*
X160061708Y-86770918D01*
X160201591Y-86808400D01*
X160346409Y-86808400D01*
X160486292Y-86770918D01*
X160524000Y-86749147D01*
X160524000Y-87858399D01*
X161173972Y-87858399D01*
X161173986Y-87858398D01*
X161276696Y-87847905D01*
X161276698Y-87847905D01*
X161443119Y-87792759D01*
X161443130Y-87792754D01*
X161592340Y-87700719D01*
X161592344Y-87700716D01*
X161716316Y-87576744D01*
X161716319Y-87576740D01*
X161808354Y-87427530D01*
X161808359Y-87427519D01*
X161863505Y-87261097D01*
X161873999Y-87158386D01*
X161874000Y-87158373D01*
X161874000Y-86508400D01*
X160764748Y-86508400D01*
X160786518Y-86470692D01*
X160824000Y-86330809D01*
X160824000Y-86185991D01*
X160786518Y-86046108D01*
X160764748Y-86008400D01*
X161873999Y-86008400D01*
X161873999Y-85358428D01*
X161873998Y-85358413D01*
X161863505Y-85255703D01*
X161863505Y-85255700D01*
X161823380Y-85134610D01*
X161811558Y-85098935D01*
X164111500Y-85098935D01*
X164111500Y-86994670D01*
X164111501Y-86994676D01*
X164117908Y-87054283D01*
X164168202Y-87189128D01*
X164168206Y-87189135D01*
X164254452Y-87304344D01*
X164254455Y-87304347D01*
X164369664Y-87390593D01*
X164369671Y-87390597D01*
X164504517Y-87440891D01*
X164504516Y-87440891D01*
X164511444Y-87441635D01*
X164564127Y-87447300D01*
X166459872Y-87447299D01*
X166519483Y-87440891D01*
X166654331Y-87390596D01*
X166769546Y-87304346D01*
X166855796Y-87189131D01*
X166906091Y-87054283D01*
X166912500Y-86994673D01*
X166912499Y-85936618D01*
X167512000Y-85936618D01*
X167512000Y-86156981D01*
X167546473Y-86374635D01*
X167614567Y-86584210D01*
X167714611Y-86780556D01*
X167760932Y-86844313D01*
X168388212Y-86217033D01*
X168399482Y-86259092D01*
X168471890Y-86384508D01*
X168574292Y-86486910D01*
X168699708Y-86559318D01*
X168741765Y-86570587D01*
X168114485Y-87197865D01*
X168114485Y-87197866D01*
X168178243Y-87244188D01*
X168374589Y-87344232D01*
X168584164Y-87412326D01*
X168801819Y-87446800D01*
X169022181Y-87446800D01*
X169239835Y-87412326D01*
X169449410Y-87344232D01*
X169645760Y-87244186D01*
X169709513Y-87197866D01*
X169709514Y-87197866D01*
X169082234Y-86570587D01*
X169124292Y-86559318D01*
X169249708Y-86486910D01*
X169352110Y-86384508D01*
X169424518Y-86259092D01*
X169435787Y-86217035D01*
X170063066Y-86844314D01*
X170063066Y-86844313D01*
X170109386Y-86780560D01*
X170209432Y-86584210D01*
X170277526Y-86374635D01*
X170312000Y-86156981D01*
X170312000Y-85936618D01*
X170912000Y-85936618D01*
X170912000Y-86156981D01*
X170946473Y-86374635D01*
X171014567Y-86584210D01*
X171114611Y-86780556D01*
X171160932Y-86844313D01*
X171788212Y-86217033D01*
X171799482Y-86259092D01*
X171871890Y-86384508D01*
X171974292Y-86486910D01*
X172099708Y-86559318D01*
X172141765Y-86570587D01*
X171514485Y-87197865D01*
X171514485Y-87197866D01*
X171578243Y-87244188D01*
X171774589Y-87344232D01*
X171984164Y-87412326D01*
X172201819Y-87446800D01*
X172422181Y-87446800D01*
X172639835Y-87412326D01*
X172849410Y-87344232D01*
X173045760Y-87244186D01*
X173109513Y-87197866D01*
X173109514Y-87197866D01*
X172482234Y-86570587D01*
X172524292Y-86559318D01*
X172649708Y-86486910D01*
X172752110Y-86384508D01*
X172824518Y-86259092D01*
X172835787Y-86217034D01*
X173463066Y-86844314D01*
X173463066Y-86844313D01*
X173509386Y-86780560D01*
X173609432Y-86584210D01*
X173639984Y-86490182D01*
X192397600Y-86490182D01*
X192397600Y-88170217D01*
X192408100Y-88272996D01*
X192441348Y-88373332D01*
X192463286Y-88439535D01*
X192555388Y-88588856D01*
X192679444Y-88712912D01*
X192828765Y-88805014D01*
X192995302Y-88860199D01*
X193098090Y-88870700D01*
X193098095Y-88870700D01*
X196298105Y-88870700D01*
X196298110Y-88870700D01*
X196400898Y-88860199D01*
X196567435Y-88805014D01*
X196716756Y-88712912D01*
X196840812Y-88588856D01*
X196932914Y-88439535D01*
X196988099Y-88272998D01*
X196998600Y-88170210D01*
X196998600Y-86490190D01*
X196988099Y-86387402D01*
X196932914Y-86220865D01*
X196840812Y-86071544D01*
X196716756Y-85947488D01*
X196567435Y-85855386D01*
X196400898Y-85800201D01*
X196400896Y-85800200D01*
X196298117Y-85789700D01*
X196298110Y-85789700D01*
X193098090Y-85789700D01*
X193098082Y-85789700D01*
X192995303Y-85800200D01*
X192995302Y-85800201D01*
X192940713Y-85818290D01*
X192828767Y-85855385D01*
X192828762Y-85855387D01*
X192679442Y-85947489D01*
X192555389Y-86071542D01*
X192463287Y-86220862D01*
X192463286Y-86220865D01*
X192408101Y-86387402D01*
X192408101Y-86387403D01*
X192408100Y-86387403D01*
X192397600Y-86490182D01*
X173639984Y-86490182D01*
X173653457Y-86448715D01*
X173677526Y-86374635D01*
X173712000Y-86156981D01*
X173712000Y-85936618D01*
X173677526Y-85718964D01*
X173609432Y-85509389D01*
X173509388Y-85313043D01*
X173463066Y-85249285D01*
X173463065Y-85249285D01*
X172835787Y-85876564D01*
X172824518Y-85834508D01*
X172752110Y-85709092D01*
X172649708Y-85606690D01*
X172524292Y-85534282D01*
X172482232Y-85523012D01*
X173109513Y-84895732D01*
X173045756Y-84849411D01*
X172849410Y-84749367D01*
X172639835Y-84681273D01*
X172422181Y-84646800D01*
X172201819Y-84646800D01*
X171984164Y-84681273D01*
X171774589Y-84749367D01*
X171578233Y-84849416D01*
X171514485Y-84895731D01*
X171514485Y-84895732D01*
X172141765Y-85523012D01*
X172099708Y-85534282D01*
X171974292Y-85606690D01*
X171871890Y-85709092D01*
X171799482Y-85834508D01*
X171788212Y-85876565D01*
X171160932Y-85249285D01*
X171160931Y-85249285D01*
X171114616Y-85313033D01*
X171014567Y-85509389D01*
X170946473Y-85718964D01*
X170912000Y-85936618D01*
X170312000Y-85936618D01*
X170277526Y-85718964D01*
X170209432Y-85509389D01*
X170109388Y-85313043D01*
X170063066Y-85249285D01*
X170063065Y-85249285D01*
X169435787Y-85876564D01*
X169424518Y-85834508D01*
X169352110Y-85709092D01*
X169249708Y-85606690D01*
X169124292Y-85534282D01*
X169082232Y-85523012D01*
X169709513Y-84895732D01*
X169645756Y-84849411D01*
X169449410Y-84749367D01*
X169239835Y-84681273D01*
X169022181Y-84646800D01*
X168801819Y-84646800D01*
X168584164Y-84681273D01*
X168374589Y-84749367D01*
X168178233Y-84849416D01*
X168114485Y-84895731D01*
X168114485Y-84895732D01*
X168741765Y-85523012D01*
X168699708Y-85534282D01*
X168574292Y-85606690D01*
X168471890Y-85709092D01*
X168399482Y-85834508D01*
X168388212Y-85876565D01*
X167760932Y-85249285D01*
X167760931Y-85249285D01*
X167714616Y-85313033D01*
X167614567Y-85509389D01*
X167546473Y-85718964D01*
X167512000Y-85936618D01*
X166912499Y-85936618D01*
X166912499Y-85098928D01*
X166906091Y-85039317D01*
X166855796Y-84904469D01*
X166855795Y-84904468D01*
X166855793Y-84904464D01*
X166769547Y-84789255D01*
X166769544Y-84789252D01*
X166654335Y-84703006D01*
X166654328Y-84703002D01*
X166519482Y-84652708D01*
X166519483Y-84652708D01*
X166459883Y-84646301D01*
X166459881Y-84646300D01*
X166459873Y-84646300D01*
X166459864Y-84646300D01*
X164564129Y-84646300D01*
X164564123Y-84646301D01*
X164504516Y-84652708D01*
X164369671Y-84703002D01*
X164369664Y-84703006D01*
X164254455Y-84789252D01*
X164254452Y-84789255D01*
X164168206Y-84904464D01*
X164168202Y-84904471D01*
X164117908Y-85039317D01*
X164112538Y-85089269D01*
X164111501Y-85098923D01*
X164111500Y-85098935D01*
X161811558Y-85098935D01*
X161808359Y-85089280D01*
X161808354Y-85089269D01*
X161716319Y-84940059D01*
X161716316Y-84940055D01*
X161592344Y-84816083D01*
X161592340Y-84816080D01*
X161443130Y-84724045D01*
X161443119Y-84724040D01*
X161276697Y-84668894D01*
X161173986Y-84658400D01*
X160524000Y-84658400D01*
X160524000Y-85767652D01*
X160486292Y-85745882D01*
X160346409Y-85708400D01*
X160201591Y-85708400D01*
X160061708Y-85745882D01*
X160024000Y-85767652D01*
X160024000Y-84658400D01*
X159374028Y-84658400D01*
X159374012Y-84658401D01*
X159271303Y-84668894D01*
X159271301Y-84668894D01*
X159104880Y-84724040D01*
X159104869Y-84724045D01*
X158955659Y-84816080D01*
X158955655Y-84816083D01*
X158831683Y-84940055D01*
X158831680Y-84940059D01*
X158739645Y-85089269D01*
X158739640Y-85089280D01*
X158684494Y-85255702D01*
X158674000Y-85358413D01*
X147871300Y-85358413D01*
X147871300Y-82693502D01*
X150956700Y-82693502D01*
X150956700Y-82929697D01*
X150993646Y-83162968D01*
X151066633Y-83387596D01*
X151146639Y-83544615D01*
X151173857Y-83598033D01*
X151312683Y-83789110D01*
X151479690Y-83956117D01*
X151670767Y-84094943D01*
X151770191Y-84145602D01*
X151881203Y-84202166D01*
X151881205Y-84202166D01*
X151881208Y-84202168D01*
X152001612Y-84241289D01*
X152105831Y-84275153D01*
X152339103Y-84312100D01*
X152339108Y-84312100D01*
X153375297Y-84312100D01*
X153608568Y-84275153D01*
X153833192Y-84202168D01*
X154043633Y-84094943D01*
X154234710Y-83956117D01*
X154401717Y-83789110D01*
X154540543Y-83598033D01*
X154647768Y-83387592D01*
X154720753Y-83162968D01*
X154733764Y-83080822D01*
X154757700Y-82929697D01*
X154757700Y-82693502D01*
X154720753Y-82460231D01*
X154702864Y-82405178D01*
X154648083Y-82236578D01*
X165811500Y-82236578D01*
X165811500Y-82457022D01*
X165818339Y-82500200D01*
X165845985Y-82674752D01*
X165914103Y-82884403D01*
X165914104Y-82884406D01*
X166014187Y-83080825D01*
X166143752Y-83259158D01*
X166143756Y-83259163D01*
X166299636Y-83415043D01*
X166299641Y-83415047D01*
X166455192Y-83528060D01*
X166477978Y-83544615D01*
X166582816Y-83598033D01*
X166674393Y-83644695D01*
X166674396Y-83644696D01*
X166774965Y-83677372D01*
X166884049Y-83712815D01*
X167101778Y-83747300D01*
X167101779Y-83747300D01*
X167322221Y-83747300D01*
X167322222Y-83747300D01*
X167539951Y-83712815D01*
X167749606Y-83644695D01*
X167946022Y-83544615D01*
X168124365Y-83415042D01*
X168280242Y-83259165D01*
X168409815Y-83080822D01*
X168509895Y-82884406D01*
X168578015Y-82674751D01*
X168612500Y-82457022D01*
X168612500Y-82236578D01*
X169211500Y-82236578D01*
X169211500Y-82457022D01*
X169218339Y-82500200D01*
X169245985Y-82674752D01*
X169314103Y-82884403D01*
X169314104Y-82884406D01*
X169414187Y-83080825D01*
X169543752Y-83259158D01*
X169543756Y-83259163D01*
X169699636Y-83415043D01*
X169699641Y-83415047D01*
X169855192Y-83528060D01*
X169877978Y-83544615D01*
X169982816Y-83598033D01*
X170074393Y-83644695D01*
X170074396Y-83644696D01*
X170174965Y-83677372D01*
X170284049Y-83712815D01*
X170501778Y-83747300D01*
X170501779Y-83747300D01*
X170722221Y-83747300D01*
X170722222Y-83747300D01*
X170939951Y-83712815D01*
X171149606Y-83644695D01*
X171346022Y-83544615D01*
X171524365Y-83415042D01*
X171680242Y-83259165D01*
X171809815Y-83080822D01*
X171909895Y-82884406D01*
X171978015Y-82674751D01*
X172012500Y-82457022D01*
X172012500Y-82236578D01*
X171978015Y-82018849D01*
X171971956Y-82000200D01*
X192418500Y-82000200D01*
X194043979Y-82000200D01*
X194025001Y-82046018D01*
X193998100Y-82181256D01*
X193998100Y-82319144D01*
X194025001Y-82454382D01*
X194043979Y-82500200D01*
X192418500Y-82500200D01*
X192436019Y-82610818D01*
X192510927Y-82841359D01*
X192620974Y-83057336D01*
X192763456Y-83253445D01*
X192934854Y-83424843D01*
X193130963Y-83567325D01*
X193346940Y-83677372D01*
X193577481Y-83752279D01*
X193816900Y-83790200D01*
X194448100Y-83790200D01*
X194448100Y-82904320D01*
X194493918Y-82923299D01*
X194629156Y-82950200D01*
X194767044Y-82950200D01*
X194902282Y-82923299D01*
X194948100Y-82904320D01*
X194948100Y-83790200D01*
X195579300Y-83790200D01*
X195818718Y-83752279D01*
X196049259Y-83677372D01*
X196265236Y-83567325D01*
X196461345Y-83424843D01*
X196632743Y-83253445D01*
X196775225Y-83057336D01*
X196885272Y-82841359D01*
X196960180Y-82610818D01*
X196977700Y-82500200D01*
X195352221Y-82500200D01*
X195371199Y-82454382D01*
X195398100Y-82319144D01*
X195398100Y-82181256D01*
X195371199Y-82046018D01*
X195352221Y-82000200D01*
X196977700Y-82000200D01*
X196960180Y-81889581D01*
X196885272Y-81659040D01*
X196775225Y-81443063D01*
X196632743Y-81246954D01*
X196461345Y-81075556D01*
X196265236Y-80933074D01*
X196049259Y-80823027D01*
X195818718Y-80748120D01*
X195579300Y-80710200D01*
X194948100Y-80710200D01*
X194948100Y-81596079D01*
X194902282Y-81577101D01*
X194767044Y-81550200D01*
X194629156Y-81550200D01*
X194493918Y-81577101D01*
X194448100Y-81596079D01*
X194448100Y-80710200D01*
X193816900Y-80710200D01*
X193577481Y-80748120D01*
X193346940Y-80823027D01*
X193130963Y-80933074D01*
X192934854Y-81075556D01*
X192763456Y-81246954D01*
X192620974Y-81443063D01*
X192510927Y-81659040D01*
X192436019Y-81889581D01*
X192418500Y-82000200D01*
X171971956Y-82000200D01*
X171917984Y-81834090D01*
X171909896Y-81809196D01*
X171909895Y-81809193D01*
X171837485Y-81667083D01*
X171809815Y-81612778D01*
X171764350Y-81550200D01*
X171680247Y-81434441D01*
X171680243Y-81434436D01*
X171524363Y-81278556D01*
X171524358Y-81278552D01*
X171346025Y-81148987D01*
X171346024Y-81148986D01*
X171346022Y-81148985D01*
X171283096Y-81116922D01*
X171149606Y-81048904D01*
X171149603Y-81048903D01*
X170939952Y-80980785D01*
X170831086Y-80963542D01*
X170722222Y-80946300D01*
X170501778Y-80946300D01*
X170429201Y-80957795D01*
X170284047Y-80980785D01*
X170074396Y-81048903D01*
X170074393Y-81048904D01*
X169877974Y-81148987D01*
X169699641Y-81278552D01*
X169699636Y-81278556D01*
X169543756Y-81434436D01*
X169543752Y-81434441D01*
X169414187Y-81612774D01*
X169314104Y-81809193D01*
X169314103Y-81809196D01*
X169245985Y-82018847D01*
X169245985Y-82018849D01*
X169211500Y-82236578D01*
X168612500Y-82236578D01*
X168578015Y-82018849D01*
X168517984Y-81834090D01*
X168509896Y-81809196D01*
X168509895Y-81809193D01*
X168437485Y-81667083D01*
X168409815Y-81612778D01*
X168364350Y-81550200D01*
X168280247Y-81434441D01*
X168280243Y-81434436D01*
X168124363Y-81278556D01*
X168124358Y-81278552D01*
X167946025Y-81148987D01*
X167946024Y-81148986D01*
X167946022Y-81148985D01*
X167883096Y-81116922D01*
X167749606Y-81048904D01*
X167749603Y-81048903D01*
X167539952Y-80980785D01*
X167431086Y-80963542D01*
X167322222Y-80946300D01*
X167101778Y-80946300D01*
X167029201Y-80957795D01*
X166884047Y-80980785D01*
X166674396Y-81048903D01*
X166674393Y-81048904D01*
X166477974Y-81148987D01*
X166299641Y-81278552D01*
X166299636Y-81278556D01*
X166143756Y-81434436D01*
X166143752Y-81434441D01*
X166014187Y-81612774D01*
X165914104Y-81809193D01*
X165914103Y-81809196D01*
X165845985Y-82018847D01*
X165845985Y-82018849D01*
X165811500Y-82236578D01*
X154648083Y-82236578D01*
X154647768Y-82235608D01*
X154540543Y-82025167D01*
X154401717Y-81834090D01*
X154234710Y-81667083D01*
X154043633Y-81528257D01*
X153833196Y-81421033D01*
X153608568Y-81348046D01*
X153375297Y-81311100D01*
X153375292Y-81311100D01*
X152339108Y-81311100D01*
X152339103Y-81311100D01*
X152105831Y-81348046D01*
X151881203Y-81421033D01*
X151670766Y-81528257D01*
X151603539Y-81577101D01*
X151479690Y-81667083D01*
X151479688Y-81667085D01*
X151479687Y-81667085D01*
X151312685Y-81834087D01*
X151312685Y-81834088D01*
X151312683Y-81834090D01*
X151272366Y-81889581D01*
X151173857Y-82025166D01*
X151066633Y-82235603D01*
X150993646Y-82460231D01*
X150956700Y-82693502D01*
X147871300Y-82693502D01*
X147871300Y-75423502D01*
X150956700Y-75423502D01*
X150956700Y-75659697D01*
X150993646Y-75892968D01*
X151066633Y-76117596D01*
X151166910Y-76314398D01*
X151173857Y-76328033D01*
X151312683Y-76519110D01*
X151479690Y-76686117D01*
X151670767Y-76824943D01*
X151770191Y-76875602D01*
X151881203Y-76932166D01*
X151881205Y-76932166D01*
X151881208Y-76932168D01*
X152001612Y-76971289D01*
X152105831Y-77005153D01*
X152339103Y-77042100D01*
X152339108Y-77042100D01*
X153375297Y-77042100D01*
X153608568Y-77005153D01*
X153635670Y-76996347D01*
X153833192Y-76932168D01*
X154043633Y-76824943D01*
X154234710Y-76686117D01*
X154401717Y-76519110D01*
X154540543Y-76328033D01*
X154547498Y-76314383D01*
X177335423Y-76314383D01*
X177335423Y-77914401D01*
X177335424Y-77914418D01*
X177345923Y-78017196D01*
X177345924Y-78017199D01*
X177401108Y-78183731D01*
X177401109Y-78183734D01*
X177493211Y-78333056D01*
X177617267Y-78457112D01*
X177766589Y-78549214D01*
X177933126Y-78604399D01*
X178035914Y-78614900D01*
X179635931Y-78614899D01*
X179738720Y-78604399D01*
X179905257Y-78549214D01*
X180054579Y-78457112D01*
X180178635Y-78333056D01*
X180270737Y-78183734D01*
X180325922Y-78017197D01*
X180336423Y-77914409D01*
X180336422Y-76996347D01*
X182335923Y-76996347D01*
X182335923Y-77232452D01*
X182372857Y-77465647D01*
X182445820Y-77690202D01*
X182553010Y-77900574D01*
X182613261Y-77983504D01*
X182613263Y-77983505D01*
X183352960Y-77243808D01*
X183369998Y-77307393D01*
X183435824Y-77421407D01*
X183528916Y-77514499D01*
X183642930Y-77580325D01*
X183706513Y-77597362D01*
X182966816Y-78337058D01*
X183049751Y-78397314D01*
X183260120Y-78504502D01*
X183484675Y-78577465D01*
X183484674Y-78577465D01*
X183717871Y-78614400D01*
X183953975Y-78614400D01*
X184187170Y-78577465D01*
X184411725Y-78504502D01*
X184622086Y-78397318D01*
X184622092Y-78397314D01*
X184705027Y-78337058D01*
X184705028Y-78337058D01*
X183965331Y-77597362D01*
X184028916Y-77580325D01*
X184142930Y-77514499D01*
X184236022Y-77421407D01*
X184301848Y-77307393D01*
X184318885Y-77243808D01*
X185058581Y-77983505D01*
X185058581Y-77983504D01*
X185118837Y-77900569D01*
X185118841Y-77900563D01*
X185226025Y-77690202D01*
X185298988Y-77465647D01*
X185335923Y-77232452D01*
X185335923Y-76996347D01*
X185298988Y-76763152D01*
X185226025Y-76538597D01*
X185118837Y-76328228D01*
X185058581Y-76245294D01*
X185058581Y-76245293D01*
X184318885Y-76984990D01*
X184301848Y-76921407D01*
X184236022Y-76807393D01*
X184142930Y-76714301D01*
X184028916Y-76648475D01*
X183965332Y-76631437D01*
X184705028Y-75891740D01*
X184705027Y-75891738D01*
X184622097Y-75831487D01*
X184411725Y-75724297D01*
X184187170Y-75651334D01*
X184187171Y-75651334D01*
X183953975Y-75614400D01*
X183717871Y-75614400D01*
X183484675Y-75651334D01*
X183260120Y-75724297D01*
X183049753Y-75831484D01*
X182966817Y-75891740D01*
X183706514Y-76631437D01*
X183642930Y-76648475D01*
X183528916Y-76714301D01*
X183435824Y-76807393D01*
X183369998Y-76921407D01*
X183352960Y-76984991D01*
X182613263Y-76245294D01*
X182553007Y-76328230D01*
X182445820Y-76538597D01*
X182372857Y-76763152D01*
X182335923Y-76996347D01*
X180336422Y-76996347D01*
X180336422Y-76314392D01*
X180329363Y-76245293D01*
X180325922Y-76211603D01*
X180325921Y-76211600D01*
X180294771Y-76117596D01*
X180270737Y-76045066D01*
X180178635Y-75895744D01*
X180054579Y-75771688D01*
X179905257Y-75679586D01*
X179738720Y-75624401D01*
X179738718Y-75624400D01*
X179635933Y-75613900D01*
X178035921Y-75613900D01*
X178035904Y-75613901D01*
X177933126Y-75624400D01*
X177933123Y-75624401D01*
X177766591Y-75679585D01*
X177766586Y-75679587D01*
X177617265Y-75771689D01*
X177493212Y-75895742D01*
X177401110Y-76045063D01*
X177401108Y-76045068D01*
X177391398Y-76074371D01*
X177345924Y-76211603D01*
X177345924Y-76211604D01*
X177345923Y-76211604D01*
X177335423Y-76314383D01*
X154547498Y-76314383D01*
X154647768Y-76117592D01*
X154720753Y-75892968D01*
X154739962Y-75771688D01*
X154757700Y-75659697D01*
X154757700Y-75423502D01*
X154720753Y-75190231D01*
X154663327Y-75013495D01*
X154652470Y-74980082D01*
X154652459Y-74980048D01*
X189707500Y-74980048D01*
X189707500Y-75184751D01*
X189739522Y-75386934D01*
X189802781Y-75581623D01*
X189852696Y-75679585D01*
X189895585Y-75763759D01*
X189895715Y-75764013D01*
X190016028Y-75929613D01*
X190160786Y-76074371D01*
X190281226Y-76161874D01*
X190326390Y-76194687D01*
X190425710Y-76245293D01*
X190508776Y-76287618D01*
X190508778Y-76287618D01*
X190508781Y-76287620D01*
X190591143Y-76314381D01*
X190703465Y-76350877D01*
X190804557Y-76366888D01*
X190905648Y-76382900D01*
X190905649Y-76382900D01*
X191110351Y-76382900D01*
X191110352Y-76382900D01*
X191312534Y-76350877D01*
X191507219Y-76287620D01*
X191689610Y-76194687D01*
X191795723Y-76117592D01*
X191855213Y-76074371D01*
X191855215Y-76074368D01*
X191855219Y-76074366D01*
X191999966Y-75929619D01*
X191999968Y-75929615D01*
X191999971Y-75929613D01*
X192071262Y-75831487D01*
X192120287Y-75764010D01*
X192213220Y-75581619D01*
X192276477Y-75386934D01*
X192308500Y-75184752D01*
X192308500Y-74980082D01*
X194635600Y-74980082D01*
X194635600Y-75184717D01*
X194667609Y-75386817D01*
X194730844Y-75581431D01*
X194823741Y-75763750D01*
X194823747Y-75763759D01*
X194856123Y-75808321D01*
X194856124Y-75808322D01*
X195535600Y-75128846D01*
X195535600Y-75135061D01*
X195562859Y-75236794D01*
X195615520Y-75328006D01*
X195689994Y-75402480D01*
X195781206Y-75455141D01*
X195882939Y-75482400D01*
X195889153Y-75482400D01*
X195209676Y-76161874D01*
X195254250Y-76194259D01*
X195436568Y-76287155D01*
X195631182Y-76350390D01*
X195833283Y-76382400D01*
X196037917Y-76382400D01*
X196240017Y-76350390D01*
X196434631Y-76287155D01*
X196616949Y-76194259D01*
X196661521Y-76161874D01*
X195982047Y-75482400D01*
X195988261Y-75482400D01*
X196089994Y-75455141D01*
X196181206Y-75402480D01*
X196255680Y-75328006D01*
X196308341Y-75236794D01*
X196335600Y-75135061D01*
X196335600Y-75128848D01*
X197015074Y-75808322D01*
X197015074Y-75808321D01*
X197047459Y-75763749D01*
X197140355Y-75581431D01*
X197203590Y-75386817D01*
X197235600Y-75184717D01*
X197235600Y-74980082D01*
X197203590Y-74777982D01*
X197140355Y-74583368D01*
X197047459Y-74401050D01*
X197015074Y-74356477D01*
X197015074Y-74356476D01*
X196335600Y-75035951D01*
X196335600Y-75029739D01*
X196308341Y-74928006D01*
X196255680Y-74836794D01*
X196181206Y-74762320D01*
X196089994Y-74709659D01*
X195988261Y-74682400D01*
X195982046Y-74682400D01*
X196661522Y-74002924D01*
X196661521Y-74002923D01*
X196616959Y-73970547D01*
X196616950Y-73970541D01*
X196434631Y-73877644D01*
X196240017Y-73814409D01*
X196037917Y-73782400D01*
X195833283Y-73782400D01*
X195631182Y-73814409D01*
X195436568Y-73877644D01*
X195254244Y-73970543D01*
X195209677Y-74002923D01*
X195209677Y-74002924D01*
X195889154Y-74682400D01*
X195882939Y-74682400D01*
X195781206Y-74709659D01*
X195689994Y-74762320D01*
X195615520Y-74836794D01*
X195562859Y-74928006D01*
X195535600Y-75029739D01*
X195535600Y-75035953D01*
X194856124Y-74356477D01*
X194856123Y-74356477D01*
X194823743Y-74401044D01*
X194730844Y-74583368D01*
X194667609Y-74777982D01*
X194635600Y-74980082D01*
X192308500Y-74980082D01*
X192308500Y-74980048D01*
X192300257Y-74928006D01*
X192276477Y-74777865D01*
X192245458Y-74682400D01*
X192213220Y-74583181D01*
X192213218Y-74583178D01*
X192213218Y-74583176D01*
X192179503Y-74517007D01*
X192120287Y-74400790D01*
X192088092Y-74356477D01*
X191999971Y-74235186D01*
X191855213Y-74090428D01*
X191689613Y-73970115D01*
X191689612Y-73970114D01*
X191689610Y-73970113D01*
X191632653Y-73941091D01*
X191507223Y-73877181D01*
X191312534Y-73813922D01*
X191137995Y-73786278D01*
X191110352Y-73781900D01*
X190905648Y-73781900D01*
X190881329Y-73785751D01*
X190703465Y-73813922D01*
X190508776Y-73877181D01*
X190326386Y-73970115D01*
X190160786Y-74090428D01*
X190016028Y-74235186D01*
X189895715Y-74400786D01*
X189802781Y-74583176D01*
X189739522Y-74777865D01*
X189707500Y-74980048D01*
X154652459Y-74980048D01*
X154647768Y-74965608D01*
X154647766Y-74965605D01*
X154647766Y-74965603D01*
X154582134Y-74836794D01*
X154540543Y-74755167D01*
X154401717Y-74564090D01*
X154234710Y-74397083D01*
X154043633Y-74258257D01*
X153833196Y-74151033D01*
X153608568Y-74078046D01*
X153375297Y-74041100D01*
X153375292Y-74041100D01*
X152339108Y-74041100D01*
X152339103Y-74041100D01*
X152105831Y-74078046D01*
X151881203Y-74151033D01*
X151670766Y-74258257D01*
X151562087Y-74337218D01*
X151479690Y-74397083D01*
X151479688Y-74397085D01*
X151479687Y-74397085D01*
X151312685Y-74564087D01*
X151312685Y-74564088D01*
X151312683Y-74564090D01*
X151298813Y-74583181D01*
X151173857Y-74755166D01*
X151066633Y-74965603D01*
X150993646Y-75190231D01*
X150956700Y-75423502D01*
X147871300Y-75423502D01*
X147871300Y-69128949D01*
X163607900Y-69128949D01*
X163607900Y-69351850D01*
X163607901Y-69351866D01*
X163636994Y-69572852D01*
X163636995Y-69572857D01*
X163636996Y-69572863D01*
X163694690Y-69788180D01*
X163694693Y-69788190D01*
X163761877Y-69950386D01*
X163779995Y-69994126D01*
X163891452Y-70187174D01*
X163891457Y-70187180D01*
X163891458Y-70187182D01*
X164027151Y-70364022D01*
X164027157Y-70364029D01*
X164184770Y-70521642D01*
X164184776Y-70521647D01*
X164361626Y-70657348D01*
X164554674Y-70768805D01*
X164760619Y-70854110D01*
X164975937Y-70911804D01*
X165196943Y-70940900D01*
X165196950Y-70940900D01*
X165419850Y-70940900D01*
X165419857Y-70940900D01*
X165640863Y-70911804D01*
X165856181Y-70854110D01*
X166062126Y-70768805D01*
X166255174Y-70657348D01*
X166432024Y-70521647D01*
X166589647Y-70364024D01*
X166725348Y-70187174D01*
X166836805Y-69994126D01*
X166922110Y-69788181D01*
X166979804Y-69572863D01*
X167008900Y-69351857D01*
X167008900Y-69128949D01*
X170607900Y-69128949D01*
X170607900Y-69351850D01*
X170607901Y-69351866D01*
X170636994Y-69572852D01*
X170636995Y-69572857D01*
X170636996Y-69572863D01*
X170694690Y-69788180D01*
X170694693Y-69788190D01*
X170761877Y-69950386D01*
X170779995Y-69994126D01*
X170891452Y-70187174D01*
X170891457Y-70187180D01*
X170891458Y-70187182D01*
X171027151Y-70364022D01*
X171027157Y-70364029D01*
X171184770Y-70521642D01*
X171184776Y-70521647D01*
X171361626Y-70657348D01*
X171554674Y-70768805D01*
X171760619Y-70854110D01*
X171975937Y-70911804D01*
X172196943Y-70940900D01*
X172196950Y-70940900D01*
X172419850Y-70940900D01*
X172419857Y-70940900D01*
X172640863Y-70911804D01*
X172856181Y-70854110D01*
X173062126Y-70768805D01*
X173255174Y-70657348D01*
X173421597Y-70529648D01*
X200375500Y-70529648D01*
X200375500Y-70734351D01*
X200407522Y-70936534D01*
X200470781Y-71131223D01*
X200563715Y-71313613D01*
X200684028Y-71479213D01*
X200828786Y-71623971D01*
X200994388Y-71744286D01*
X201047828Y-71771516D01*
X201098623Y-71819490D01*
X201115418Y-71887312D01*
X201092880Y-71953446D01*
X201047828Y-71992484D01*
X200994388Y-72019713D01*
X200828786Y-72140028D01*
X200684028Y-72284786D01*
X200563715Y-72450386D01*
X200470781Y-72632776D01*
X200407522Y-72827465D01*
X200375500Y-73029648D01*
X200375500Y-73234351D01*
X200407522Y-73436534D01*
X200470781Y-73631223D01*
X200563715Y-73813613D01*
X200684028Y-73979213D01*
X200828786Y-74123971D01*
X200981857Y-74235181D01*
X200994390Y-74244287D01*
X201110607Y-74303503D01*
X201176776Y-74337218D01*
X201176778Y-74337218D01*
X201176781Y-74337220D01*
X201236045Y-74356476D01*
X201371465Y-74400477D01*
X201472557Y-74416488D01*
X201573648Y-74432500D01*
X201573649Y-74432500D01*
X201778351Y-74432500D01*
X201778352Y-74432500D01*
X201980534Y-74400477D01*
X202175219Y-74337220D01*
X202357610Y-74244287D01*
X202450590Y-74176732D01*
X202523213Y-74123971D01*
X202523215Y-74123968D01*
X202523219Y-74123966D01*
X202667966Y-73979219D01*
X202667968Y-73979215D01*
X202667971Y-73979213D01*
X202787706Y-73814409D01*
X202788287Y-73813610D01*
X202881220Y-73631219D01*
X202944477Y-73436534D01*
X202976500Y-73234352D01*
X202976500Y-73029648D01*
X202944477Y-72827466D01*
X202881220Y-72632781D01*
X202881218Y-72632778D01*
X202881218Y-72632776D01*
X202847503Y-72566607D01*
X202788287Y-72450390D01*
X202780556Y-72439749D01*
X202667971Y-72284786D01*
X202523213Y-72140028D01*
X202357613Y-72019715D01*
X202357612Y-72019714D01*
X202357610Y-72019713D01*
X202304171Y-71992484D01*
X202253376Y-71944510D01*
X202236581Y-71876689D01*
X202259118Y-71810554D01*
X202304172Y-71771515D01*
X202357610Y-71744287D01*
X202450590Y-71676732D01*
X202523213Y-71623971D01*
X202523215Y-71623968D01*
X202523219Y-71623966D01*
X202667966Y-71479219D01*
X202667968Y-71479215D01*
X202667971Y-71479213D01*
X202720732Y-71406590D01*
X202788287Y-71313610D01*
X202881220Y-71131219D01*
X202944477Y-70936534D01*
X202976500Y-70734352D01*
X202976500Y-70529648D01*
X202944477Y-70327466D01*
X202881220Y-70132781D01*
X202881218Y-70132778D01*
X202881218Y-70132776D01*
X202847503Y-70066607D01*
X202788287Y-69950390D01*
X202780556Y-69939749D01*
X202667971Y-69784786D01*
X202523213Y-69640028D01*
X202357613Y-69519715D01*
X202357612Y-69519714D01*
X202357610Y-69519713D01*
X202300653Y-69490691D01*
X202175223Y-69426781D01*
X201980534Y-69363522D01*
X201805995Y-69335878D01*
X201778352Y-69331500D01*
X201573648Y-69331500D01*
X201549329Y-69335351D01*
X201371465Y-69363522D01*
X201176776Y-69426781D01*
X200994386Y-69519715D01*
X200828786Y-69640028D01*
X200684028Y-69784786D01*
X200563715Y-69950386D01*
X200470781Y-70132776D01*
X200407522Y-70327465D01*
X200375500Y-70529648D01*
X173421597Y-70529648D01*
X173432024Y-70521647D01*
X173432029Y-70521642D01*
X173516577Y-70437095D01*
X173589642Y-70364029D01*
X173589647Y-70364024D01*
X173725348Y-70187174D01*
X173836805Y-69994126D01*
X173922110Y-69788181D01*
X173979804Y-69572863D01*
X174008900Y-69351857D01*
X174008900Y-69128943D01*
X173979804Y-68907937D01*
X173922110Y-68692619D01*
X173836805Y-68486674D01*
X173725348Y-68293626D01*
X173662672Y-68211944D01*
X173602628Y-68133693D01*
X173602627Y-68133692D01*
X173589646Y-68116774D01*
X173432029Y-67959157D01*
X173432022Y-67959151D01*
X173255182Y-67823458D01*
X173255180Y-67823457D01*
X173255174Y-67823452D01*
X173062126Y-67711995D01*
X173062122Y-67711993D01*
X172856190Y-67626693D01*
X172856183Y-67626691D01*
X172856181Y-67626690D01*
X172640863Y-67568996D01*
X172640857Y-67568995D01*
X172640852Y-67568994D01*
X172419866Y-67539901D01*
X172419863Y-67539900D01*
X172419857Y-67539900D01*
X172196943Y-67539900D01*
X172196937Y-67539900D01*
X172196933Y-67539901D01*
X171975947Y-67568994D01*
X171975940Y-67568995D01*
X171975937Y-67568996D01*
X171760619Y-67626690D01*
X171760609Y-67626693D01*
X171554677Y-67711993D01*
X171554673Y-67711995D01*
X171361626Y-67823452D01*
X171361617Y-67823458D01*
X171184777Y-67959151D01*
X171184770Y-67959157D01*
X171027157Y-68116770D01*
X171027151Y-68116777D01*
X170891458Y-68293617D01*
X170891452Y-68293626D01*
X170779995Y-68486673D01*
X170779993Y-68486677D01*
X170694693Y-68692609D01*
X170694690Y-68692619D01*
X170636997Y-68907934D01*
X170636994Y-68907947D01*
X170607901Y-69128933D01*
X170607900Y-69128949D01*
X167008900Y-69128949D01*
X167008900Y-69128943D01*
X166979804Y-68907937D01*
X166922110Y-68692619D01*
X166836805Y-68486674D01*
X166725348Y-68293626D01*
X166662672Y-68211944D01*
X166589648Y-68116777D01*
X166589642Y-68116770D01*
X166432029Y-67959157D01*
X166432022Y-67959151D01*
X166255182Y-67823458D01*
X166255180Y-67823457D01*
X166255174Y-67823452D01*
X166062126Y-67711995D01*
X166062122Y-67711993D01*
X165856190Y-67626693D01*
X165856183Y-67626691D01*
X165856181Y-67626690D01*
X165640863Y-67568996D01*
X165640857Y-67568995D01*
X165640852Y-67568994D01*
X165419866Y-67539901D01*
X165419863Y-67539900D01*
X165419857Y-67539900D01*
X165196943Y-67539900D01*
X165196937Y-67539900D01*
X165196933Y-67539901D01*
X164975947Y-67568994D01*
X164975940Y-67568995D01*
X164975937Y-67568996D01*
X164760619Y-67626690D01*
X164760609Y-67626693D01*
X164554677Y-67711993D01*
X164554673Y-67711995D01*
X164361626Y-67823452D01*
X164361617Y-67823458D01*
X164184777Y-67959151D01*
X164184770Y-67959157D01*
X164027157Y-68116770D01*
X164027151Y-68116777D01*
X163891458Y-68293617D01*
X163891452Y-68293626D01*
X163779995Y-68486673D01*
X163779993Y-68486677D01*
X163694693Y-68692609D01*
X163694690Y-68692619D01*
X163636997Y-68907934D01*
X163636994Y-68907947D01*
X163607901Y-69128933D01*
X163607900Y-69128949D01*
X147871300Y-69128949D01*
X147871300Y-67060000D01*
X156064000Y-67060000D01*
X157689479Y-67060000D01*
X157670501Y-67105818D01*
X157643600Y-67241056D01*
X157643600Y-67378944D01*
X157670501Y-67514182D01*
X157689479Y-67560000D01*
X156064000Y-67560000D01*
X156081519Y-67670618D01*
X156156427Y-67901159D01*
X156266474Y-68117136D01*
X156408956Y-68313245D01*
X156580354Y-68484643D01*
X156776463Y-68627125D01*
X156992440Y-68737172D01*
X157222981Y-68812079D01*
X157462400Y-68850000D01*
X158093600Y-68850000D01*
X158093600Y-67964120D01*
X158139418Y-67983099D01*
X158274656Y-68010000D01*
X158412544Y-68010000D01*
X158547782Y-67983099D01*
X158593600Y-67964120D01*
X158593600Y-68850000D01*
X159224800Y-68850000D01*
X159464218Y-68812079D01*
X159694759Y-68737172D01*
X159910736Y-68627125D01*
X160106845Y-68484643D01*
X160278243Y-68313245D01*
X160420725Y-68117136D01*
X160530772Y-67901159D01*
X160605680Y-67670618D01*
X160623200Y-67560000D01*
X158997721Y-67560000D01*
X159016699Y-67514182D01*
X159043600Y-67378944D01*
X159043600Y-67241056D01*
X159016699Y-67105818D01*
X158997721Y-67060000D01*
X160623200Y-67060000D01*
X160605679Y-66949380D01*
X160605679Y-66949377D01*
X160582378Y-66877664D01*
X160571511Y-66844218D01*
X178284600Y-66844218D01*
X178284600Y-67064581D01*
X178319073Y-67282235D01*
X178387167Y-67491810D01*
X178487211Y-67688156D01*
X178533532Y-67751913D01*
X179242461Y-67042984D01*
X179265267Y-67128094D01*
X179324510Y-67230706D01*
X179408294Y-67314490D01*
X179510906Y-67373733D01*
X179596014Y-67396537D01*
X178887085Y-68105465D01*
X178887085Y-68105466D01*
X178950843Y-68151788D01*
X179147189Y-68251832D01*
X179356764Y-68319926D01*
X179574419Y-68354400D01*
X179794781Y-68354400D01*
X180012435Y-68319926D01*
X180222010Y-68251832D01*
X180418360Y-68151786D01*
X180482113Y-68105466D01*
X180482114Y-68105466D01*
X179773185Y-67396538D01*
X179858294Y-67373733D01*
X179960906Y-67314490D01*
X180044690Y-67230706D01*
X180103933Y-67128094D01*
X180126738Y-67042985D01*
X180787781Y-67704028D01*
X180821266Y-67765351D01*
X180824100Y-67791708D01*
X180824100Y-67902269D01*
X180824101Y-67902276D01*
X180830508Y-67961883D01*
X180880802Y-68096728D01*
X180880806Y-68096735D01*
X180967052Y-68211944D01*
X180967055Y-68211947D01*
X181082264Y-68298193D01*
X181082271Y-68298197D01*
X181217117Y-68348491D01*
X181217116Y-68348491D01*
X181224044Y-68349235D01*
X181276727Y-68354900D01*
X183172472Y-68354899D01*
X183232083Y-68348491D01*
X183366931Y-68298196D01*
X183482146Y-68211946D01*
X183568396Y-68096731D01*
X183618691Y-67961883D01*
X183625100Y-67902273D01*
X183625099Y-67360048D01*
X189707500Y-67360048D01*
X189707500Y-67564751D01*
X189739522Y-67766934D01*
X189802781Y-67961623D01*
X189827431Y-68010000D01*
X189890456Y-68133693D01*
X189895715Y-68144013D01*
X190016028Y-68309613D01*
X190160786Y-68454371D01*
X190315749Y-68566956D01*
X190326390Y-68574687D01*
X190429305Y-68627125D01*
X190508776Y-68667618D01*
X190508778Y-68667618D01*
X190508781Y-68667620D01*
X190585720Y-68692619D01*
X190703465Y-68730877D01*
X190743210Y-68737172D01*
X190905648Y-68762900D01*
X190905649Y-68762900D01*
X191110351Y-68762900D01*
X191110352Y-68762900D01*
X191312534Y-68730877D01*
X191507219Y-68667620D01*
X191689610Y-68574687D01*
X191782590Y-68507132D01*
X191855213Y-68454371D01*
X191855215Y-68454368D01*
X191855219Y-68454366D01*
X191999966Y-68309619D01*
X191999968Y-68309615D01*
X191999971Y-68309613D01*
X192070930Y-68211944D01*
X192120287Y-68144010D01*
X192210872Y-67966227D01*
X192213218Y-67961623D01*
X192213218Y-67961622D01*
X192213220Y-67961619D01*
X192276477Y-67766934D01*
X192308500Y-67564752D01*
X192308500Y-67360048D01*
X194635100Y-67360048D01*
X194635100Y-67564751D01*
X194667122Y-67766934D01*
X194730381Y-67961623D01*
X194755031Y-68010000D01*
X194818056Y-68133693D01*
X194823315Y-68144013D01*
X194943628Y-68309613D01*
X195088386Y-68454371D01*
X195243349Y-68566956D01*
X195253990Y-68574687D01*
X195356905Y-68627125D01*
X195436376Y-68667618D01*
X195436378Y-68667618D01*
X195436381Y-68667620D01*
X195513320Y-68692619D01*
X195631065Y-68730877D01*
X195670810Y-68737172D01*
X195833248Y-68762900D01*
X195833249Y-68762900D01*
X196037951Y-68762900D01*
X196037952Y-68762900D01*
X196240134Y-68730877D01*
X196434819Y-68667620D01*
X196617210Y-68574687D01*
X196710190Y-68507132D01*
X196782813Y-68454371D01*
X196782815Y-68454368D01*
X196782819Y-68454366D01*
X196927566Y-68309619D01*
X196927568Y-68309615D01*
X196927571Y-68309613D01*
X196998530Y-68211944D01*
X197047887Y-68144010D01*
X197138472Y-67966227D01*
X197140818Y-67961623D01*
X197140818Y-67961622D01*
X197140820Y-67961619D01*
X197204077Y-67766934D01*
X197236100Y-67564752D01*
X197236100Y-67360048D01*
X197204077Y-67157866D01*
X197194403Y-67128094D01*
X197140818Y-66963176D01*
X197097247Y-66877664D01*
X197047887Y-66780790D01*
X197037341Y-66766274D01*
X196927571Y-66615186D01*
X196782813Y-66470428D01*
X196617213Y-66350115D01*
X196617212Y-66350114D01*
X196617210Y-66350113D01*
X196560253Y-66321091D01*
X196434823Y-66257181D01*
X196240134Y-66193922D01*
X196065595Y-66166278D01*
X196037952Y-66161900D01*
X195833248Y-66161900D01*
X195808929Y-66165751D01*
X195631065Y-66193922D01*
X195436376Y-66257181D01*
X195253986Y-66350115D01*
X195088386Y-66470428D01*
X194943628Y-66615186D01*
X194823315Y-66780786D01*
X194730381Y-66963176D01*
X194667122Y-67157865D01*
X194635100Y-67360048D01*
X192308500Y-67360048D01*
X192276477Y-67157866D01*
X192266803Y-67128094D01*
X192213218Y-66963176D01*
X192169647Y-66877664D01*
X192120287Y-66780790D01*
X192109741Y-66766274D01*
X191999971Y-66615186D01*
X191855213Y-66470428D01*
X191689613Y-66350115D01*
X191689612Y-66350114D01*
X191689610Y-66350113D01*
X191632653Y-66321091D01*
X191507223Y-66257181D01*
X191312534Y-66193922D01*
X191137995Y-66166278D01*
X191110352Y-66161900D01*
X190905648Y-66161900D01*
X190881329Y-66165751D01*
X190703465Y-66193922D01*
X190508776Y-66257181D01*
X190326386Y-66350115D01*
X190160786Y-66470428D01*
X190016028Y-66615186D01*
X189895715Y-66780786D01*
X189802781Y-66963176D01*
X189739522Y-67157865D01*
X189707500Y-67360048D01*
X183625099Y-67360048D01*
X183625099Y-66954400D01*
X183625099Y-66006529D01*
X183625098Y-66006523D01*
X183625097Y-66006516D01*
X183618691Y-65946917D01*
X183568396Y-65812069D01*
X183568395Y-65812068D01*
X183568393Y-65812064D01*
X183482147Y-65696855D01*
X183482144Y-65696852D01*
X183366935Y-65610606D01*
X183366928Y-65610602D01*
X183232082Y-65560308D01*
X183232083Y-65560308D01*
X183172483Y-65553901D01*
X183172481Y-65553900D01*
X183172473Y-65553900D01*
X183172464Y-65553900D01*
X181276729Y-65553900D01*
X181276723Y-65553901D01*
X181217116Y-65560308D01*
X181082271Y-65610602D01*
X181082264Y-65610606D01*
X180967055Y-65696852D01*
X180967052Y-65696855D01*
X180880806Y-65812064D01*
X180880802Y-65812071D01*
X180830508Y-65946917D01*
X180825568Y-65992874D01*
X180824101Y-66006523D01*
X180824100Y-66006535D01*
X180824100Y-66117091D01*
X180804415Y-66184130D01*
X180787781Y-66204772D01*
X180126738Y-66865814D01*
X180103933Y-66780706D01*
X180044690Y-66678094D01*
X179960906Y-66594310D01*
X179858294Y-66535067D01*
X179773183Y-66512261D01*
X180482113Y-65803332D01*
X180418356Y-65757011D01*
X180222010Y-65656967D01*
X180012435Y-65588873D01*
X179794781Y-65554400D01*
X179574419Y-65554400D01*
X179356764Y-65588873D01*
X179147189Y-65656967D01*
X178950833Y-65757016D01*
X178887085Y-65803331D01*
X178887085Y-65803332D01*
X179596014Y-66512261D01*
X179510906Y-66535067D01*
X179408294Y-66594310D01*
X179324510Y-66678094D01*
X179265267Y-66780706D01*
X179242461Y-66865814D01*
X178533532Y-66156885D01*
X178533531Y-66156885D01*
X178487216Y-66220633D01*
X178387167Y-66416989D01*
X178319073Y-66626564D01*
X178284600Y-66844218D01*
X160571511Y-66844218D01*
X160530772Y-66718840D01*
X160420725Y-66502863D01*
X160278243Y-66306754D01*
X160106845Y-66135356D01*
X159910736Y-65992874D01*
X159848329Y-65961076D01*
X159694759Y-65882827D01*
X159464218Y-65807920D01*
X159224800Y-65770000D01*
X158593600Y-65770000D01*
X158593600Y-66655879D01*
X158547782Y-66636901D01*
X158412544Y-66610000D01*
X158274656Y-66610000D01*
X158139418Y-66636901D01*
X158093600Y-66655879D01*
X158093600Y-65770000D01*
X157462400Y-65770000D01*
X157222981Y-65807920D01*
X156992440Y-65882827D01*
X156776463Y-65992874D01*
X156580354Y-66135356D01*
X156408956Y-66306754D01*
X156266474Y-66502863D01*
X156156427Y-66718840D01*
X156081519Y-66949381D01*
X156064000Y-67060000D01*
X147871300Y-67060000D01*
X147871300Y-61389982D01*
X156043100Y-61389982D01*
X156043100Y-63070017D01*
X156053600Y-63172796D01*
X156053601Y-63172798D01*
X156108786Y-63339335D01*
X156200888Y-63488656D01*
X156324944Y-63612712D01*
X156474265Y-63704814D01*
X156640802Y-63759999D01*
X156743590Y-63770500D01*
X156743595Y-63770500D01*
X159943605Y-63770500D01*
X159943610Y-63770500D01*
X160046398Y-63759999D01*
X160212935Y-63704814D01*
X160362256Y-63612712D01*
X160486312Y-63488656D01*
X160578414Y-63339335D01*
X160633599Y-63172798D01*
X160644100Y-63070010D01*
X160644100Y-61389990D01*
X160633599Y-61287202D01*
X160578414Y-61120665D01*
X160486312Y-60971344D01*
X160362256Y-60847288D01*
X160212935Y-60755186D01*
X160046398Y-60700001D01*
X160046396Y-60700000D01*
X159943617Y-60689500D01*
X159943610Y-60689500D01*
X156743590Y-60689500D01*
X156743582Y-60689500D01*
X156640803Y-60700000D01*
X156640802Y-60700001D01*
X156558269Y-60727349D01*
X156474267Y-60755185D01*
X156474262Y-60755187D01*
X156324942Y-60847289D01*
X156200889Y-60971342D01*
X156108787Y-61120662D01*
X156108786Y-61120665D01*
X156053601Y-61287202D01*
X156053601Y-61287203D01*
X156053600Y-61287203D01*
X156043100Y-61389982D01*
X147871300Y-61389982D01*
X147871300Y-50713300D01*
X147890985Y-50646261D01*
X147943789Y-50600506D01*
X147995300Y-50589300D01*
X150823327Y-50589300D01*
X150890366Y-50608985D01*
G37*
%TD.AperFunction*%
%TD*%
M02*
